<svg width="124" height="67" viewBox="0 0 124 67" fill="none" xmlns="http://www.w3.org/2000/svg">
<path d="M11.7998 34.8432C11.404 34.9652 11.0162 34.9772 10.6365 34.8792C10.2693 34.7764 9.88103 34.6744 9.47168 34.5734C9.17923 34.4421 8.92565 34.2818 8.71095 34.0925C8.49151 33.8906 8.26855 33.6045 8.04206 33.2342C7.90213 33.0164 7.78834 32.7173 7.7007 32.337C7.61305 31.9566 7.55656 31.5644 7.53123 31.1603C7.50115 30.7438 7.49329 30.4044 7.50765 30.1422C7.52444 29.7363 7.56914 29.2914 7.64173 28.8072C7.72205 28.3059 7.80563 27.8319 7.89245 27.3851C7.98699 26.9212 8.06013 26.551 8.11187 26.2745C8.16592 26.1541 8.18671 26.0963 8.17425 26.101C8.16951 26.0885 8.16714 26.0823 8.16714 26.0823C8.14343 26.02 8.14648 25.8405 8.17628 25.5439C8.21379 25.23 8.24447 24.9544 8.26831 24.7171C8.37938 24.4466 8.42367 24.2443 8.40118 24.1102C8.3787 23.9761 8.32207 23.8835 8.23132 23.8325C8.18743 23.7921 8.19786 23.6883 8.26261 23.521C8.32735 23.3537 8.44106 23.1464 8.60374 22.899C8.76642 22.6517 8.96026 22.3925 9.18525 22.1214C9.39425 21.7709 9.63347 21.5372 9.90289 21.4204C10.18 21.2865 10.3696 21.2785 10.4716 21.3967C10.4858 21.434 10.5591 21.4204 10.6914 21.3558C10.8315 21.274 10.9879 21.1788 11.1606 21.0703C11.341 20.9446 11.5013 20.8409 11.6413 20.759C11.6752 20.6606 11.7972 20.55 12.0073 20.4272C12.2251 20.2873 12.4826 20.1394 12.78 19.9835C12.9467 19.9343 13.1049 19.8813 13.2544 19.8244C13.4117 19.7503 13.5378 19.688 13.6327 19.6376C13.7401 19.5825 13.7938 19.555 13.7938 19.555C13.8716 19.4968 13.976 19.4714 14.1072 19.4785C14.2507 19.481 14.4151 19.5754 14.6001 19.7618C14.7727 19.9529 14.8055 20.133 14.6986 20.3021C14.6042 20.4664 14.3134 20.6769 13.8262 20.9336C13.4713 21.1256 13.1639 21.2925 12.9039 21.4342C12.6392 21.5634 12.3668 21.7099 12.0867 21.8735C11.8019 22.0247 11.4603 22.2331 11.0621 22.4987C10.7742 22.6796 10.5472 22.8515 10.381 23.0146C10.2101 23.1652 10.0806 23.35 9.99272 23.5689C9.90007 23.7753 9.81481 24.0574 9.73692 24.4152C9.67339 24.5107 9.62287 24.7153 9.58535 25.0292C9.54784 25.343 9.51032 25.6569 9.4728 25.9708C9.30877 26.5895 9.16465 27.1294 9.04044 27.5903C8.92395 28.0341 8.90249 28.2776 8.97604 28.321C8.97604 28.321 9.05169 28.3136 9.203 28.2988C9.3543 28.2841 9.45488 28.2672 9.50473 28.2482C9.60564 28.1385 9.73859 28.038 9.90357 27.9467C10.081 27.8507 10.2211 27.7689 10.3238 27.7013C11.0205 27.2079 11.5657 26.8222 11.9592 26.5441C12.3651 26.2613 12.6708 26.0523 12.8761 25.9171C13.0892 25.7647 13.2557 25.6586 13.3756 25.5987C13.4979 25.3952 13.6566 25.3063 13.8518 25.3319C14.0595 25.3527 14.2487 25.4377 14.4195 25.5867C14.534 25.7001 14.579 25.8184 14.5546 25.9418C14.5427 26.0605 14.4249 26.2195 14.2011 26.4187C13.9898 26.6132 13.661 26.8739 13.2147 27.2006C12.7683 27.5273 12.1828 27.9569 11.4581 28.4894C10.8486 28.9496 10.3079 29.2908 9.83613 29.5131C9.36434 29.7354 9.0935 29.7171 9.0236 29.4584C8.9174 29.4418 8.84141 29.542 8.79563 29.7591C8.75757 29.9591 8.74321 30.2213 8.75256 30.5459C8.76191 30.8704 8.79084 31.2089 8.83934 31.5614C8.90029 31.9091 8.97284 32.231 9.05696 32.5271C9.1488 32.806 9.24572 33.0045 9.34772 33.1226C9.55646 33.3713 9.77502 33.5521 10.0034 33.6649C10.227 33.7653 10.5744 33.7972 11.0455 33.7606C11.2995 33.6783 11.5496 33.6045 11.7959 33.5393C12.0422 33.4742 12.2911 33.3224 12.5428 33.084C13.2306 32.6797 13.7603 32.3283 14.1319 32.0301C14.5034 31.7318 14.7109 31.5459 14.7542 31.4723C14.835 31.3845 14.8878 31.3359 14.9127 31.3264C14.9454 31.2997 14.9928 31.2745 15.0552 31.2508C15.0415 31.3274 15.0563 31.3289 15.0996 31.2553C15.1507 31.1646 15.2149 31.0332 15.2921 30.8611C15.3817 30.6844 15.5174 30.4972 15.699 30.2997C15.8807 30.1022 16.0469 29.9391 16.1976 29.8105C16.3609 29.677 16.4606 29.6391 16.4967 29.6967C16.6189 29.7928 16.6728 29.9721 16.6585 30.2343C16.6394 30.4841 16.5488 30.7896 16.3866 31.1509C16.2197 31.4997 15.9757 31.8707 15.6546 32.2639C15.1268 32.8641 14.5027 33.3797 13.7822 33.8108C13.0665 34.2543 12.4057 34.5984 11.7998 34.8432ZM19.7064 35.4729C19.5365 35.8514 19.2311 36.1173 18.7902 36.2708C18.3665 36.432 17.9458 36.4137 17.5282 36.216C17.2886 36.0361 17.0793 35.8233 16.9002 35.5776C16.7086 35.3366 16.5788 35.1078 16.5107 34.8912C16.4348 34.6918 16.4592 34.5684 16.5838 34.521C16.6461 34.4973 16.7093 34.4947 16.7734 34.5131C16.8375 34.5315 16.9 34.5648 16.9611 34.6128C17.027 34.6734 17.0788 34.7535 17.1168 34.8532C17.1879 35.0401 17.2955 35.1918 17.4396 35.3081C17.5838 35.4245 17.7368 35.4518 17.8988 35.3902C18.0549 35.3879 18.2213 35.2818 18.3983 35.0718C18.5876 34.8571 18.7082 34.6115 18.7599 34.3351C18.8229 34.1256 18.8752 33.8133 18.917 33.398C18.9711 32.9779 19.012 32.5416 19.0395 32.0889C19.0842 31.6439 19.1051 31.2864 19.1022 31.0164C19.0574 30.4486 18.9891 29.8754 18.8974 29.2969C18.8182 28.7136 18.7247 28.093 18.617 27.4349C18.5388 27.0795 18.4859 26.7715 18.4581 26.511C18.438 26.2334 18.4185 26.0696 18.3996 26.0197C18.3806 25.9699 18.3489 25.8678 18.3045 25.7135C18.2553 25.5468 18.2382 25.3893 18.2531 25.2409C18.1819 25.054 18.1328 24.8873 18.1055 24.7407C18.086 24.5769 18.0668 24.4701 18.0478 24.4203C18.071 24.3687 18.1161 24.3372 18.1832 24.326C18.2627 24.31 18.3469 24.3065 18.4359 24.3154C18.5374 24.3196 18.6311 24.341 18.7171 24.3796C18.8548 24.4414 18.955 24.5174 19.0178 24.6076C19.0932 24.6931 19.1587 24.8465 19.2143 25.0678C19.2825 25.2844 19.3731 25.6351 19.4862 26.1199C19.5146 26.1947 19.5552 26.3576 19.6079 26.6086C19.6559 26.8471 19.7032 27.1215 19.75 27.4319C19.7967 27.7422 19.8411 28.0463 19.883 28.3442C19.9203 28.6296 19.9534 28.8666 19.9824 29.0553C20.0037 29.2612 20.0258 29.4881 20.0489 29.7362C20.0719 29.9842 20.0938 30.1542 20.1145 30.2462C20.1305 30.3257 20.1438 30.4918 20.1543 30.7446C20.1602 30.9849 20.1597 31.2275 20.1531 31.4726C20.1589 31.7129 20.1722 31.879 20.1929 31.971C20.1994 32.0256 20.2071 32.1582 20.2159 32.3688C20.2372 32.5747 20.2341 32.904 20.2066 33.3567C20.2012 33.53 20.1687 33.7634 20.1093 34.0571C20.0623 34.346 20.0019 34.6186 19.9282 34.8749C19.8593 35.1437 19.7853 35.343 19.7064 35.4729ZM17.831 21.6568C17.6323 21.5469 17.5018 21.354 17.4397 21.0781C17.39 20.7974 17.415 20.4883 17.5148 20.1508C17.6057 19.9022 17.7399 19.7299 17.9173 19.6339C18.0948 19.5378 18.2906 19.5275 18.5047 19.603C18.7224 19.7627 18.8573 19.9111 18.9095 20.0481C18.9569 20.1728 18.95 20.3608 18.8888 20.6124C18.71 21.0799 18.5437 21.3928 18.39 21.5511C18.2315 21.697 18.0452 21.7322 17.831 21.6568ZM25.9307 28.2046C25.7543 28.5285 25.4988 28.7755 25.1641 28.9456C24.8418 29.111 24.4926 29.1868 24.1165 29.173C23.7356 29.1467 23.3823 29.0243 23.0567 28.8058C22.7405 28.6123 22.4849 28.3529 22.2898 28.0277C22.09 27.69 21.906 27.225 21.7378 26.6328C21.5902 26.1326 21.5611 25.5873 21.6504 24.997C21.7349 24.3942 21.8968 23.8261 22.1362 23.2929C22.388 22.7548 22.6786 22.3375 23.008 22.041C23.1475 21.8453 23.282 21.7299 23.4113 21.695C23.5484 21.6428 23.7588 21.5771 24.0424 21.4977C24.3433 21.426 24.5765 21.4015 24.742 21.4241C24.92 21.442 25.0763 21.4967 25.2109 21.5881C25.469 21.7039 25.6647 21.8434 25.7981 22.0067C25.9268 22.1574 26.0244 22.32 26.0907 22.4945C26.1452 22.7876 26.0863 23.1952 25.914 23.7173C25.7494 24.2221 25.4591 24.6963 25.0429 25.14C24.802 25.3315 24.5171 25.4827 24.1884 25.5935C23.8596 25.7043 23.5609 25.7252 23.2921 25.6563C23.0174 25.6467 22.8687 25.7246 22.8461 25.8901C22.8188 26.0432 22.8688 26.3808 22.9961 26.903C23.1264 27.3955 23.2965 27.7303 23.5065 27.9072C23.7117 28.0716 23.9274 28.1322 24.1534 28.089C24.4216 28.044 24.629 28.0079 24.7756 27.9807C24.9299 27.9363 25.0892 27.8114 25.2537 27.6062C25.4057 27.4057 25.5042 27.2898 25.5493 27.2584C25.5897 27.2145 25.6176 27.1753 25.633 27.1409C25.6562 27.0893 25.7064 26.9775 25.7836 26.8055C25.8376 26.685 25.8825 26.5967 25.9181 26.5403C25.949 26.4715 25.9956 26.4252 26.0579 26.4015C26.1202 26.3778 26.1881 26.3876 26.2617 26.431C26.3305 26.4619 26.3945 26.4803 26.4539 26.4863C26.5785 26.4388 26.6319 26.5041 26.614 26.6821C26.6086 26.8554 26.5465 27.0858 26.4277 27.3736C26.3041 27.6488 26.1385 27.9258 25.9307 28.2046ZM24.4043 24.2488C24.5177 24.1343 24.6278 23.9926 24.7347 23.8235C24.8368 23.642 24.9117 23.4638 24.9592 23.2888C25.0145 23.0965 25.0231 22.9506 24.9852 22.8509C24.9188 22.6764 24.7833 22.5639 24.5786 22.5134C24.3692 22.4504 24.1191 22.5242 23.8283 22.7347C23.7054 22.8242 23.5852 22.9769 23.4676 23.1929C23.3453 23.3963 23.2364 23.6161 23.1407 23.8522C23.0576 24.0836 22.9922 24.2868 22.9447 24.4618C22.9096 24.632 22.9092 24.7249 22.9436 24.7403C23.0047 24.7884 23.1296 24.798 23.3183 24.769C23.5023 24.7275 23.6978 24.6603 23.9049 24.5672C24.1245 24.4694 24.291 24.3633 24.4043 24.2488ZM29.2288 26.907C29.1724 26.8714 29.1113 26.8233 29.0455 26.7628C28.9921 26.6975 28.956 26.6399 28.937 26.5901C28.9275 26.5652 28.9094 26.5364 28.8827 26.5037C28.8685 26.4663 28.8365 26.4571 28.7866 26.4761C28.735 26.4529 28.7054 26.3001 28.6978 26.0177C28.698 25.7181 28.7088 25.3716 28.7303 24.9782C28.7643 24.5801 28.8031 24.1945 28.8465 23.8213C28.8977 23.4309 28.9439 23.1209 28.9849 22.8913C29.033 22.8302 29.0514 22.7662 29.0402 22.6991C29.0366 22.6148 29.0224 22.5775 28.9975 22.5869C28.9975 22.5869 29.0073 22.519 29.027 22.3831C29.0543 22.2301 29.0796 22.1277 29.1027 22.0761C29.1361 21.8637 29.1445 21.6608 29.1279 21.4674C29.1067 21.2615 29.0599 21.101 28.9875 20.9858C28.914 20.9425 28.8508 20.9451 28.7979 20.9938C28.7451 21.0424 28.7187 21.0667 28.7187 21.0667C28.6736 21.0981 28.6083 21.1515 28.5228 21.2268C28.4451 21.2849 28.3783 21.3531 28.3225 21.4314C28.1117 21.7399 27.9541 21.9068 27.8497 21.9323C27.7405 21.9453 27.5667 21.826 27.3283 21.5743C27.2263 21.4562 27.1697 21.3636 27.1585 21.2965C27.1472 21.2295 27.171 21.142 27.2298 21.034C27.2963 20.9089 27.3684 20.8172 27.4462 20.7591C27.5192 20.6885 27.5735 20.6251 27.6091 20.5687C27.713 20.4293 27.8015 20.3244 27.8745 20.2538C27.9599 20.1785 28.0252 20.1251 28.0703 20.0937C28.3564 19.8707 28.6235 19.7477 28.8715 19.7247C29.1195 19.7017 29.3494 19.7997 29.5611 20.0187C29.8162 20.1642 29.9958 20.374 30.1002 20.6481C30.1997 20.9098 30.2286 21.2483 30.1869 21.6637L30.1067 22.0152C30.0918 22.1635 30.103 22.2305 30.1404 22.2163C30.1902 22.1974 30.2297 22.1324 30.2589 22.0215C30.2773 21.9574 30.3236 21.8542 30.3978 21.7118C30.4721 21.5694 30.5279 21.4912 30.5653 21.4769C30.5653 21.4769 30.5753 21.466 30.5955 21.444C30.6282 21.4173 30.6279 21.3604 30.5947 21.2731C30.6179 21.2215 30.641 21.1699 30.6642 21.1183C30.6998 21.062 30.7176 21.0338 30.7176 21.0338C30.7675 21.0148 30.8396 20.9232 30.934 20.7589C31.0362 20.5774 31.1561 20.3677 31.2939 20.1298C31.393 19.978 31.4987 19.8807 31.6108 19.838C31.8643 19.6418 32.1304 19.6475 32.4091 19.8553C32.7004 20.0583 32.929 20.3779 33.0949 20.8141L33.0864 21.9729L33.4464 20.8944C33.4832 20.7662 33.5248 20.6505 33.5712 20.5473C33.6299 20.4394 33.681 20.3486 33.7243 20.2751C33.7161 20.1783 33.7345 20.1143 33.7796 20.0828C33.8247 20.0514 33.8473 20.0357 33.8473 20.0357C33.8473 20.0357 33.8597 20.031 33.8847 20.0215C33.9048 19.9995 33.9078 19.9699 33.8936 19.9325C33.9369 19.8589 33.9889 19.7892 34.0494 19.7234C34.1052 19.6451 34.1361 19.5763 34.1421 19.517C34.3208 19.3491 34.5092 19.2632 34.7073 19.2591C34.9008 19.2426 35.1096 19.3415 35.3338 19.5558C35.4779 19.6721 35.5775 19.784 35.6327 19.8914C35.6878 19.9988 35.758 20.1647 35.8434 20.389C35.8896 20.5854 35.9215 20.7445 35.9393 20.8661C35.9647 20.9705 35.9926 21.0812 36.0228 21.1981C36.053 21.315 36.0936 21.4779 36.1445 21.6868C36.1326 21.8054 36.1417 21.9232 36.1719 22.0401C36.2146 22.1522 36.2549 22.2582 36.2928 22.3579C36.3545 22.5199 36.4034 22.6297 36.4395 22.6872C36.471 22.7323 36.5303 22.7383 36.6175 22.7051C36.7778 22.6013 36.9814 22.424 37.2283 22.1732C37.4829 21.9051 37.659 21.6741 37.7564 21.4801C37.8769 21.2345 38.0057 21.0856 38.1428 21.0335C38.2876 20.9641 38.4071 20.9971 38.5014 21.1324C38.5453 21.1728 38.5444 21.3016 38.4986 21.5187C38.4653 21.7311 38.4109 21.9444 38.3354 22.1585C38.2725 22.3679 38.2098 22.4845 38.1475 22.5082C38.1101 22.5224 38.0807 22.5764 38.0593 22.6701C38.0332 22.7514 37.9961 22.8226 37.948 22.8837C37.8939 23.0041 37.8375 23.1183 37.7787 23.2263C37.7324 23.3295 37.6594 23.4001 37.5597 23.438C37.5098 23.4569 37.4546 23.4993 37.3941 23.5652C37.3413 23.6138 37.2712 23.6547 37.184 23.6879C37.0736 23.7727 36.8733 23.8275 36.5832 23.8523C36.3055 23.8723 36.0771 23.7595 35.8981 23.5138C35.7961 23.3957 35.6695 23.1942 35.5183 22.9093C35.3624 22.612 35.2501 22.2981 35.1814 21.9676C35.1459 21.7243 35.0988 21.5068 35.0402 21.3151C34.9815 21.1235 34.9567 20.9831 34.9656 20.8941C34.9514 20.8568 34.9182 20.7695 34.866 20.6324C34.8092 20.4829 34.762 20.4152 34.7246 20.4295C34.6748 20.4484 34.592 20.5869 34.4761 20.845C34.368 21.0858 34.2415 21.3907 34.0966 21.7597C33.9641 22.124 33.8364 22.5007 33.7134 22.8898C33.5904 23.279 33.4992 23.6204 33.4397 23.9141C33.3797 24.0938 33.344 24.3 33.3327 24.5326C33.3213 24.7652 33.3016 24.901 33.2737 24.9402C33.2244 25.0731 33.1232 25.1258 32.9702 25.0985C32.8296 25.0664 32.6786 24.9883 32.5173 24.8642C32.4515 24.8036 32.4028 24.7508 32.3714 24.7057C32.3352 24.6481 32.3044 24.5671 32.2789 24.4627C32.2612 24.3411 32.2432 24.1625 32.2249 23.9269C32.2191 23.6866 32.205 23.3496 32.1826 22.9159C32.1585 22.44 32.1323 22.0149 32.104 21.6405C32.0834 21.2489 32.0731 21.0531 32.0731 21.0531C32.0541 21.0032 31.9796 21.0886 31.8496 21.3093C31.7148 21.5175 31.5631 21.7749 31.3945 22.0816C31.3344 22.2613 31.2257 22.5381 31.0684 22.9118C30.911 23.2855 30.7429 23.7061 30.5641 24.1736C30.3853 24.6411 30.226 25.1225 30.0864 25.6178C29.9194 26.2663 29.7824 26.675 29.6756 26.8441C29.5812 27.0084 29.4322 27.0294 29.2288 26.907ZM41.1777 27.9247C41.0762 27.9205 40.959 27.8938 40.8261 27.8445C40.6933 27.7952 40.5743 27.7263 40.4694 27.6378C40.3691 27.5619 40.3048 27.4865 40.2763 27.4117C40.2479 27.3369 40.2032 27.1257 40.1422 26.778C40.086 26.4427 40.02 26.0256 39.9443 25.5266C39.8858 25.0353 39.8287 24.5291 39.7732 24.0082C39.7349 23.4949 39.7155 23.0315 39.7151 22.618C39.7163 22.5462 39.7191 22.3097 39.7234 21.9087C39.7354 21.4904 39.7128 20.9997 39.6555 20.4366C39.6319 20.0746 39.6229 19.6572 39.6285 19.1844C39.634 18.7115 39.6458 18.2362 39.6638 17.7586C39.6771 17.2685 39.6782 16.8402 39.6671 16.4735C39.6559 16.1068 39.6498 15.8095 39.6488 15.5817C39.6554 15.3367 39.6555 15.1868 39.649 15.1323C39.6454 15.048 39.6591 14.9715 39.69 14.9027C39.7286 14.8166 39.7719 14.7431 39.82 14.682C39.8634 14.6084 39.9014 14.5583 39.934 14.5316C40.1346 14.384 40.3633 14.404 40.6202 14.5916C40.7251 14.68 40.7874 14.8061 40.8069 14.9699C40.8264 15.1337 40.829 15.3467 40.8146 15.6089L40.826 16.0325L41.4421 15.627C41.5542 15.5843 41.6937 15.5384 41.8604 15.4892C42.0349 15.4228 42.2031 15.3588 42.3651 15.2972C42.5271 15.2356 42.6503 15.203 42.7345 15.1995C43.0383 15.0981 43.2653 15.076 43.4154 15.133C43.5779 15.1853 43.7336 15.2759 43.8825 15.4047C43.9685 15.4433 44.0765 15.5021 44.2064 15.581C44.3315 15.6475 44.4193 15.7283 44.4697 15.8232C44.6002 16.0161 44.6879 16.2467 44.7328 16.5149C44.7855 16.7659 44.8009 17.0311 44.7788 17.3105C44.7692 17.5852 44.715 17.8555 44.6164 18.1212C44.5256 18.3698 44.4103 18.592 44.2708 18.7877C44.1652 18.8849 44.0744 18.9837 43.9984 19.0839C43.9176 19.1717 43.8773 19.2156 43.8773 19.2156C43.8885 19.2827 43.7894 19.4345 43.5798 19.6711C43.3655 19.8953 43.1115 20.1275 42.8177 20.3677C42.5239 20.6078 42.2595 20.794 42.0244 20.9262C41.942 20.9719 41.8221 21.0318 41.6648 21.1059C41.5075 21.1799 41.3758 21.2087 41.2696 21.192C41.1231 21.2192 41.0249 21.2423 40.975 21.2613C40.9252 21.2803 40.9097 21.3147 40.9287 21.3645C40.9257 21.3942 40.938 21.6891 40.9657 22.2492C40.9933 22.8093 41.0455 23.4528 41.1223 24.1796C41.1606 24.9925 41.1855 25.6392 41.1971 26.1198C41.2135 26.6129 41.2184 26.982 41.2118 27.227C41.2176 27.4673 41.2161 27.6319 41.2071 27.7209C41.2029 27.8224 41.1931 27.8903 41.1777 27.9247ZM40.8901 20.1381C40.9559 20.1986 41.0838 20.1785 41.2737 20.0777C41.4713 19.9598 41.6921 19.7902 41.936 19.569C42.1877 19.3306 42.4284 19.0821 42.6582 18.8235C42.8831 18.5524 43.0583 18.3003 43.1836 18.0672C43.3392 17.6514 43.4545 17.2794 43.5294 16.9513C43.5996 16.6108 43.5557 16.4206 43.3979 16.3808C43.185 16.2335 42.894 16.2373 42.5248 16.392C42.1557 16.5467 41.7539 16.8779 41.3194 17.3855C41.136 17.5409 41.0119 17.7022 40.9471 17.8695C40.8901 18.0196 40.8574 18.1961 40.849 18.399C40.8406 18.602 40.8277 18.8494 40.8104 19.1413C40.8025 19.4581 40.806 19.6922 40.8208 19.8435C40.8355 19.9948 40.8586 20.093 40.8901 20.1381ZM48.0396 20.5422C47.8266 20.6946 47.6144 20.7183 47.4033 20.6132C47.2045 20.5033 47.0287 20.2849 46.8758 19.9579C46.7228 19.6309 46.6085 19.2179 46.5328 18.7189C46.5382 18.5456 46.5335 18.3834 46.5188 18.232C46.4993 18.0683 46.4729 17.9428 46.4397 17.8555C46.4172 17.7214 46.3983 17.5218 46.383 17.2566C46.363 16.9789 46.3468 16.6926 46.3345 16.3977C46.3221 16.1028 46.3154 15.8415 46.3143 15.6136C46.321 15.3686 46.3273 15.2164 46.3332 15.1571C46.3831 15.1381 46.4101 15.0779 46.4143 14.9764C46.4185 14.875 46.404 14.7806 46.3708 14.6934C46.3329 14.5937 46.3089 14.4744 46.2989 14.3356C46.3013 14.192 46.318 14.0858 46.3489 14.017C46.3251 13.9547 46.3115 13.8814 46.308 13.7971C46.3122 13.6957 46.3048 13.62 46.2859 13.5702C46.2669 13.5203 46.2604 13.4658 46.2664 13.4064C46.2848 13.3423 46.2845 13.2854 46.2655 13.2355C46.2911 13.0403 46.3061 12.7422 46.3104 12.3411C46.3225 11.9228 46.3265 11.4648 46.3226 10.967C46.3311 10.4644 46.3296 9.97287 46.3179 9.49227C46.3063 9.01168 46.2895 8.61147 46.2677 8.29166C46.2536 7.95464 46.2347 7.75498 46.211 7.69267C46.1731 7.59298 46.1696 7.50872 46.2004 7.43991C46.2313 7.3711 46.2966 7.31773 46.3963 7.2798C46.4195 7.22819 46.4536 7.18667 46.4987 7.15524C46.5563 7.11908 46.61 7.09151 46.6598 7.07255C46.6598 7.07255 46.6943 7.08799 46.7631 7.11887C46.8319 7.14975 46.9351 7.19608 47.0727 7.25785C47.2056 7.30715 47.2996 7.38551 47.3547 7.49293C47.4223 7.5956 47.4846 7.72171 47.5415 7.87126C47.6031 8.03326 47.6389 8.18368 47.649 8.32253C47.659 8.46137 47.653 8.67051 47.6309 8.94996C47.6088 9.22941 47.5742 9.66341 47.5271 10.252C47.5222 10.5391 47.5064 10.8162 47.4795 11.0832C47.448 11.3377 47.4417 11.4899 47.4606 11.5398C47.4796 11.5896 47.4831 11.6739 47.4712 11.7925C47.4718 11.9064 47.4756 12.0476 47.4826 12.2162C47.4707 12.3348 47.459 12.5104 47.4477 12.743C47.4315 12.9631 47.4163 13.2043 47.4019 13.4666C47.3953 13.7116 47.3917 13.927 47.391 14.1127C47.3856 14.2859 47.3876 14.385 47.3971 14.4099C47.416 14.4598 47.4288 14.512 47.4353 14.5666C47.4542 14.6164 47.4483 14.6758 47.4174 14.7446C47.3676 14.7635 47.3506 14.8128 47.3666 14.8923C47.3903 14.9546 47.4022 14.9858 47.4022 14.9858C47.4496 15.1104 47.4755 15.4785 47.48 16.0903C47.5414 16.8515 47.5939 17.552 47.6375 18.1916C47.6936 18.8265 47.788 19.3184 47.9208 19.6673C48.0345 19.9664 48.1042 20.1682 48.1296 20.2726C48.1504 20.3646 48.1204 20.4545 48.0396 20.5422ZM52.3294 18.097C52.0867 18.2465 51.9256 18.3292 51.846 18.3451C51.7743 18.3439 51.6461 18.3071 51.4616 18.2346C51.2243 18.2108 51.0087 18.1502 50.8147 18.0528C50.6332 17.9506 50.4804 17.8304 50.3565 17.6921C50.2403 17.5366 50.1671 17.4004 50.1368 17.2835C50.0083 16.8331 49.9364 16.3255 49.9213 15.7607C49.9061 15.1958 49.9354 14.6354 50.0092 14.0795C50.083 13.5236 50.2016 13.0291 50.365 12.5961C50.536 12.1458 50.7397 11.8187 50.9759 11.6147C51.1872 11.4202 51.4098 11.2927 51.6436 11.2323C51.8774 11.1719 52.0844 11.2286 52.2647 11.4025C52.5892 11.6928 52.6332 11.9399 52.397 12.1439C52.3596 12.1582 52.3231 12.1935 52.2875 12.2498C52.2471 12.2937 52.2364 12.3406 52.2554 12.3904C52.3147 12.3964 52.4542 12.3504 52.6738 12.2526C52.8886 12.1424 53.0987 12.0197 53.304 11.8845C53.5171 11.7321 53.6492 11.6105 53.7002 11.5197C53.7608 11.4539 53.8097 11.4139 53.8471 11.3997C53.8845 11.3854 53.9827 11.3623 54.1418 11.3304C54.3773 11.3121 54.5117 11.3466 54.5449 11.4338C54.5638 11.4836 54.6015 11.5264 54.6578 11.562C54.7095 11.5852 54.7602 11.5873 54.81 11.5683C54.902 11.5476 54.9109 11.6084 54.8366 11.7508C54.7749 11.8884 54.6526 12.0918 54.4697 12.3611C54.2898 12.6008 54.1782 12.7573 54.1349 12.8309C54.0992 12.8872 54.1262 12.9768 54.2157 13.0997C54.4055 13.2986 54.516 13.5703 54.5473 13.9151C54.5786 14.2598 54.5438 14.6369 54.4427 15.0462C54.3417 15.4556 54.1837 15.8652 53.9687 16.2751C53.7615 16.6678 53.5151 17.0326 53.2295 17.3694C52.9517 17.6891 52.6517 17.9317 52.3294 18.097ZM51.6987 17.3955C51.7486 17.3765 51.8263 17.3184 51.932 17.2211C52.0329 17.1114 52.1136 17.0236 52.1742 16.9578C52.2051 16.889 52.246 16.8092 52.2971 16.7184C52.3559 16.6105 52.4078 16.5408 52.4529 16.5094C52.5028 16.4904 52.558 16.448 52.6185 16.3822C52.6743 16.3039 52.7447 16.1701 52.8296 15.9809C52.9098 15.7792 53.0076 15.4924 53.1228 15.1204C53.2678 14.7514 53.3661 14.4287 53.4178 14.1522C53.4648 13.8633 53.4193 13.631 53.2811 13.4553C53.2497 13.4102 53.2004 13.3933 53.1334 13.4045C53.0788 13.411 52.9984 13.4059 52.8922 13.3893C52.7676 13.4367 52.6373 13.4506 52.5015 13.4309C52.3733 13.3941 52.2194 13.3457 52.0396 13.2856L51.5983 13.0256L51.4014 13.4643C51.2779 13.7395 51.1798 14.1192 51.1072 14.6033C51.0423 15.0702 51.0134 15.5378 51.0203 16.0059C51.0225 16.4616 51.0561 16.8125 51.1213 17.0588C51.1799 17.2505 51.2585 17.3632 51.357 17.3971C51.4555 17.431 51.5694 17.4304 51.6987 17.3955Z" fill="white"/>
<path d="M37.6744 36.0314C37.4156 35.9351 37.1278 36.0668 37.0314 36.3256L35.4615 40.5428C35.3651 40.8016 35.4968 41.0895 35.7556 41.1858C36.0144 41.2822 36.3023 41.1505 36.3987 40.8917L37.7941 37.143L41.5428 38.5385C41.8016 38.6349 42.0895 38.5032 42.1858 38.2444C42.2822 37.9856 42.1505 37.6977 41.8917 37.6013L37.6744 36.0314ZM123.332 60.029C112.636 63.8431 95.5184 67.2245 78.9547 64.9795C62.4078 62.7369 46.4632 54.892 37.9547 36.292L37.0453 36.708C45.7368 55.708 62.0422 63.6965 78.8203 65.9705C95.5816 68.2422 112.864 64.8236 123.668 60.971L123.332 60.029Z" fill="#A5D239"/>
</svg>
