<svg width="104" height="56" viewBox="0 0 104 56" fill="none" xmlns="http://www.w3.org/2000/svg">
<path d="M53.707 19.8821C53.298 19.8169 52.9448 19.6565 52.6474 19.4009C52.3632 19.1466 52.0598 18.8837 51.7371 18.6124C51.5326 18.3655 51.3759 18.1097 51.2668 17.8451C51.159 17.5671 51.0852 17.212 51.0454 16.7797C51.016 16.5225 51.0459 16.2039 51.1352 15.8239C51.2244 15.4439 51.3469 15.067 51.5025 14.6933C51.6593 14.3063 51.8021 13.9983 51.9307 13.7693C52.1249 13.4125 52.3615 13.033 52.6403 12.6306C52.9337 12.2162 53.2179 11.8278 53.493 11.4652C53.7826 11.0907 54.0116 10.7908 54.1801 10.5655C54.2818 10.4813 54.3259 10.4386 54.3127 10.4374C54.3139 10.4241 54.3145 10.4175 54.3145 10.4175C54.3208 10.3511 54.4027 10.1914 54.5604 9.93834C54.7326 9.67328 54.8818 9.43953 55.0079 9.23711C55.227 9.04341 55.356 8.88143 55.395 8.75117C55.4341 8.62091 55.4241 8.51285 55.3652 8.42696C55.3437 8.37137 55.3988 8.28281 55.5308 8.16128C55.6627 8.03975 55.8563 7.90391 56.1114 7.75378C56.3666 7.60364 56.6549 7.45662 56.9764 7.31271C57.3187 7.09041 57.6365 6.98633 57.9298 7.00048C58.2376 7.0026 58.4112 7.07916 58.4506 7.23017C58.4469 7.27 58.5186 7.29013 58.6659 7.29056C58.8277 7.27897 59.01 7.26261 59.2129 7.24149C59.4303 7.20833 59.6199 7.18596 59.7817 7.17437C59.8555 7.10095 60.0138 7.05555 60.2565 7.03816C60.5137 7.00874 60.8101 6.9897 61.1457 6.98104C61.317 7.01052 61.4824 7.03274 61.6417 7.0477C61.8155 7.05063 61.9561 7.05044 62.0636 7.04714C62.1843 7.04508 62.2446 7.04405 62.2446 7.04405C62.3401 7.02623 62.445 7.04948 62.5595 7.1138C62.6873 7.17936 62.793 7.3366 62.8768 7.58552C62.9473 7.8332 62.8973 8.00929 62.7267 8.11381C62.5695 8.21957 62.2156 8.28009 61.6651 8.29536C61.2619 8.31106 60.9124 8.32511 60.6166 8.33752C60.322 8.33664 60.013 8.3478 59.6894 8.37098C59.3671 8.38089 58.9686 8.41713 58.494 8.4797C58.1559 8.51491 57.8763 8.56901 57.6552 8.64199C57.4353 8.70169 57.2376 8.81035 57.0621 8.96797C56.8878 9.11231 56.6868 9.32779 56.459 9.61442C56.3598 9.67207 56.2242 9.83342 56.052 10.0985C55.8798 10.3635 55.7076 10.6286 55.5354 10.8937C55.115 11.3765 54.7474 11.7973 54.4325 12.1561C54.1321 12.5029 54.0053 12.7119 54.0522 12.7833C54.0522 12.7833 54.1233 12.8101 54.2656 12.8636C54.4079 12.9171 54.5056 12.9464 54.5587 12.9514C54.6977 12.8975 54.8614 12.866 55.0497 12.8569C55.2513 12.849 55.4131 12.8374 55.5351 12.8221C56.3781 12.687 57.0375 12.5815 57.5133 12.5056C58.0024 12.431 58.369 12.3784 58.6129 12.3478C58.8714 12.3051 59.0676 12.2833 59.2016 12.2825C59.4011 12.1539 59.5828 12.1442 59.7467 12.2533C59.9238 12.3637 60.0561 12.5235 60.1436 12.7325C60.1963 12.8848 60.1844 13.0109 60.1081 13.1109C60.045 13.2121 59.8691 13.3027 59.5804 13.3827C59.3049 13.464 58.8948 13.5527 58.3501 13.6489C57.8054 13.745 57.0904 13.8721 56.2051 14.03C55.455 14.1739 54.8192 14.2414 54.2978 14.2326C53.7763 14.2238 53.5413 14.0879 53.5928 13.8249C53.5049 13.7631 53.3924 13.8195 53.2555 13.9941C53.1331 14.1567 53.0045 14.3857 52.8696 14.681C52.7347 14.9764 52.6113 15.2929 52.4992 15.6306C52.4004 15.9695 52.3234 16.2904 52.2682 16.5932C52.2275 16.884 52.2269 17.1049 52.2662 17.2559C52.3438 17.5712 52.4601 17.8299 52.6152 18.0319C52.7716 18.2207 53.0692 18.4027 53.5081 18.5778C53.7724 18.616 54.0293 18.6602 54.2791 18.7105C54.5288 18.7607 54.8192 18.7344 55.1503 18.6316C55.946 18.5724 56.5763 18.4909 57.0414 18.3873C57.5064 18.2836 57.7747 18.2084 57.846 18.1615C57.9572 18.1184 58.0261 18.0981 58.0526 18.1006C58.0937 18.091 58.1474 18.0894 58.2138 18.0956C58.1677 18.1583 58.1804 18.1661 58.2517 18.1193C58.3376 18.0604 58.4532 17.9708 58.5984 17.8505C58.7569 17.7315 58.9612 17.6234 59.2114 17.5264C59.4615 17.4294 59.6827 17.3564 59.8747 17.3074C60.0801 17.2598 60.1863 17.2697 60.1933 17.3374C60.2605 17.4776 60.2298 17.6622 60.1012 17.8912C59.9738 18.1069 59.7576 18.341 59.4527 18.5936C59.149 18.8329 58.7662 19.0581 58.3045 19.2692C57.566 19.5749 56.7784 19.7621 55.9416 19.8308C55.1036 19.9128 54.3588 19.9299 53.707 19.8821ZM60.5237 23.9372C60.2043 24.2018 59.8128 24.3056 59.3495 24.2487C58.8981 24.2064 58.5287 24.0043 58.2413 23.6425C58.1057 23.3753 58.0117 23.0919 57.9595 22.7924C57.894 22.4916 57.8785 22.229 57.913 22.0046C57.9329 21.7922 58.0093 21.6922 58.142 21.7047C58.2084 21.7109 58.2662 21.7365 58.3156 21.7813C58.365 21.8261 58.4064 21.8836 58.44 21.9537C58.4724 22.0371 58.4836 22.1318 58.4736 22.238C58.4549 22.4372 58.4845 22.6207 58.5625 22.7888C58.6405 22.9568 58.7657 23.0489 58.9383 23.0651C59.0793 23.1319 59.2756 23.1102 59.527 22.9999C59.7917 22.8908 60.0082 22.7236 60.1767 22.4984C60.3257 22.3383 60.5105 22.0811 60.7313 21.7269C60.9653 21.3739 61.1946 21.0003 61.419 20.6063C61.6556 20.2267 61.8321 19.9152 61.9487 19.6717C62.1591 19.1424 62.3509 18.5979 62.524 18.0383C62.7103 17.48 62.9004 16.8818 63.0942 16.2438C63.181 15.8903 63.2694 15.5906 63.3594 15.3446C63.464 15.0866 63.5188 14.9311 63.5238 14.878C63.5288 14.8249 63.5454 14.7193 63.5736 14.5612C63.6031 14.3899 63.6573 14.241 63.7361 14.1145C63.7548 13.9153 63.7843 13.744 63.8245 13.6005C63.8793 13.4449 63.9092 13.3406 63.9142 13.2875C63.9578 13.2514 64.0121 13.2431 64.0772 13.2626C64.1556 13.2834 64.2328 13.3174 64.3087 13.3647C64.3979 13.4133 64.4726 13.4738 64.5327 13.5464C64.6289 13.6626 64.6853 13.775 64.7019 13.8837C64.7318 13.9937 64.7228 14.1602 64.6751 14.3834C64.6406 14.6078 64.5671 14.9625 64.4546 15.4475C64.4472 15.5271 64.4117 15.6912 64.3481 15.9397C64.2859 16.1749 64.2072 16.442 64.1122 16.7411C64.0171 17.0402 63.9227 17.3327 63.8289 17.6185C63.7364 17.891 63.6615 18.1183 63.6042 18.3005C63.5324 18.4946 63.4521 18.708 63.3633 18.9407C63.2745 19.1735 63.2191 19.3357 63.197 19.4273C63.1763 19.5057 63.1149 19.6607 63.0128 19.8921C62.9119 20.1103 62.8045 20.3279 62.6904 20.5449C62.5895 20.763 62.5281 20.918 62.5061 21.0097C62.4878 21.0615 62.4362 21.1839 62.3511 21.3768C62.2793 21.5709 62.1312 21.865 61.9067 22.2591C61.8253 22.4122 61.6932 22.6073 61.5102 22.8446C61.3405 23.0831 61.166 23.3011 60.9868 23.4985C60.8063 23.7092 60.6519 23.8554 60.5237 23.9372ZM64.9395 10.7121C64.8096 10.5258 64.7777 10.2951 64.8437 10.0201C64.923 9.74629 65.0819 9.47998 65.3205 9.22115C65.5118 9.03823 65.7082 8.94284 65.9098 8.93499C66.1115 8.92714 66.2917 9.00433 66.4506 9.16656C66.5754 9.40594 66.631 9.59865 66.6172 9.74467C66.6048 9.87742 66.5156 10.0431 66.3496 10.2418C65.9828 10.5824 65.6955 10.7897 65.4877 10.864C65.2811 10.9249 65.0983 10.8743 64.9395 10.7121ZM69.3171 20.1627C69.0159 20.3755 68.6776 20.4843 68.3022 20.4893C67.94 20.4954 67.5932 20.4093 67.2618 20.2309C66.9316 20.0391 66.6686 19.7734 66.4728 19.4336C66.2746 19.1204 66.1597 18.7748 66.1283 18.3969C66.098 18.0056 66.1381 17.5072 66.2486 16.9016C66.337 16.3876 66.5516 15.8854 66.8922 15.3951C67.2341 14.8916 67.6302 14.4533 68.0803 14.0804C68.5438 13.7088 68.9887 13.4627 69.4152 13.342C69.6268 13.228 69.7984 13.1838 69.9299 13.2095C70.0759 13.2233 70.2937 13.2571 70.5832 13.3111C70.8848 13.3796 71.1049 13.4605 71.2434 13.5539C71.3952 13.6485 71.5114 13.7665 71.5918 13.908C71.7723 14.1258 71.8863 14.3374 71.934 14.5427C71.9829 14.7348 71.9987 14.9238 71.9812 15.1096C71.9007 15.3967 71.6679 15.7364 71.2829 16.1288C70.9124 16.5092 70.4425 16.8066 69.8733 17.0209C69.5725 17.0864 69.2502 17.0964 68.9063 17.0507C68.5624 17.005 68.2851 16.8919 68.0744 16.7114C67.8321 16.5815 67.6643 16.5859 67.5709 16.7244C67.4788 16.8497 67.3746 17.1747 67.2584 17.6995C67.1579 18.1989 67.1629 18.5744 67.2732 18.8258C67.3847 19.0639 67.5515 19.2135 67.7734 19.2745C68.0339 19.3525 68.2359 19.4117 68.3795 19.4519C68.5375 19.4802 68.7356 19.4385 68.9738 19.3269C69.1986 19.2141 69.3382 19.1536 69.3926 19.1453C69.4482 19.1237 69.4905 19.1009 69.5195 19.0769C69.5631 19.0408 69.6575 18.9626 69.8027 18.8423C69.9044 18.7581 69.9836 18.6986 70.0404 18.6638C70.0985 18.6157 70.1608 18.5947 70.2271 18.6009C70.2935 18.6072 70.3501 18.646 70.397 18.7173C70.4451 18.7754 70.4945 18.8202 70.5451 18.8518C70.6778 18.8642 70.6969 18.9464 70.6023 19.0982C70.521 19.2513 70.3635 19.4307 70.1299 19.6364C69.8976 19.8288 69.6266 20.0043 69.3171 20.1627ZM69.6936 15.9394C69.8459 15.8867 70.0073 15.8082 70.1778 15.7036C70.3495 15.5858 70.4954 15.4589 70.6153 15.3229C70.7497 15.1748 70.8219 15.0477 70.8319 14.9415C70.8493 14.7556 70.7774 14.5948 70.616 14.4592C70.4559 14.3102 70.1989 14.266 69.8451 14.3265C69.6953 14.3526 69.52 14.4366 69.3192 14.5784C69.1196 14.707 68.9249 14.8561 68.7348 15.0258C68.5581 15.1967 68.4097 15.3501 68.2898 15.4862C68.1832 15.6235 68.1419 15.7067 68.166 15.7357C68.1996 15.8058 68.3074 15.8695 68.4895 15.9268C68.6729 15.9708 68.878 15.9967 69.1049 16.0047C69.3451 16.0138 69.5414 15.9921 69.6936 15.9394ZM72.8493 20.4542C72.8144 20.3974 72.7808 20.3272 72.7485 20.2439C72.7294 20.1617 72.7224 20.0941 72.7274 20.041C72.7298 20.0144 72.7263 19.9806 72.7168 19.9396C72.7205 19.8997 72.6959 19.8773 72.6428 19.8723C72.6067 19.8288 72.6476 19.6786 72.7654 19.4218C72.8978 19.153 73.0604 18.8469 73.2534 18.5034C73.4596 18.1612 73.6646 17.8323 73.8684 17.5166C74.0866 17.1889 74.2648 16.9311 74.403 16.7432C74.4731 16.7096 74.5179 16.6603 74.5374 16.5951C74.5715 16.518 74.5752 16.4781 74.5487 16.4757C74.5487 16.4757 74.5874 16.419 74.665 16.3058C74.7572 16.1805 74.825 16.0998 74.8686 16.0638C74.9922 15.8879 75.0893 15.7095 75.1599 15.5286C75.2317 15.3345 75.2605 15.1698 75.2464 15.0346C75.1996 14.9632 75.1417 14.9377 75.0728 14.958C75.004 14.9783 74.9695 14.9885 74.9695 14.9885C74.9152 14.9968 74.833 15.0158 74.7231 15.0457C74.6277 15.0635 74.5377 15.0952 74.453 15.1409C74.1278 15.3246 73.9126 15.4048 73.8077 15.3816C73.704 15.3451 73.6007 15.1613 73.4979 14.8302C73.4585 14.6792 73.4486 14.5711 73.4681 14.506C73.4876 14.4409 73.5475 14.3728 73.6479 14.3019C73.7629 14.219 73.868 14.1686 73.9634 14.1508C74.0601 14.1197 74.1369 14.0867 74.1937 14.0519C74.3484 13.9726 74.4742 13.9175 74.5708 13.8864C74.6808 13.8565 74.7629 13.8375 74.8172 13.8292C75.1724 13.7554 75.4663 13.7629 75.699 13.8517C75.9317 13.9405 76.0947 14.1299 76.188 14.4199C76.3527 14.663 76.4213 14.9306 76.3939 15.2227C76.3677 15.5014 76.2442 15.818 76.0235 16.1722L75.7963 16.4522C75.7175 16.5787 75.698 16.6438 75.7378 16.6476C75.7909 16.6526 75.855 16.6117 75.9301 16.525C75.9749 16.4757 76.062 16.4035 76.1915 16.3085C76.3209 16.2135 76.4056 16.1679 76.4454 16.1716C76.4454 16.1716 76.4593 16.1663 76.4871 16.1555C76.5281 16.1459 76.553 16.0947 76.5618 16.0018C76.6053 15.9657 76.6489 15.9296 76.6925 15.8935C76.7493 15.8587 76.7777 15.8413 76.7777 15.8413C76.8308 15.8463 76.936 15.7959 77.0932 15.6901C77.265 15.5723 77.4652 15.4371 77.6938 15.2845C77.8498 15.192 77.9875 15.1513 78.107 15.1626C78.421 15.0983 78.6573 15.2209 78.8157 15.5304C78.9874 15.8412 79.0514 16.2289 79.0078 16.6935L78.4887 17.7295L79.2878 16.9207C79.3774 16.8219 79.4658 16.7365 79.5529 16.6643C79.6533 16.5934 79.7392 16.5345 79.8106 16.4876C79.8459 16.3972 79.8907 16.3478 79.945 16.3396C79.9994 16.3313 80.0265 16.3271 80.0265 16.3271C80.0265 16.3271 80.0398 16.3284 80.0664 16.3309C80.0942 16.3201 80.1099 16.2948 80.1137 16.2549C80.185 16.2081 80.2624 16.1685 80.3458 16.1361C80.4304 16.0905 80.4885 16.0424 80.52 15.9918C80.7544 15.9201 80.9614 15.9261 81.1411 16.0099C81.3219 16.0805 81.4656 16.2614 81.5722 16.5526C81.6502 16.7206 81.6902 16.865 81.6923 16.9857C81.6943 17.1065 81.6841 17.2863 81.6617 17.5252C81.6164 17.7219 81.5749 17.8787 81.5372 17.9957C81.5139 18.1006 81.49 18.2122 81.4655 18.3304C81.4411 18.4487 81.4056 18.6127 81.3591 18.8226C81.296 18.9238 81.2522 19.0336 81.2277 19.1518C81.2165 19.2713 81.2059 19.3841 81.1959 19.4903C81.1797 19.6629 81.1751 19.783 81.1822 19.8506C81.1905 19.9049 81.2411 19.9365 81.334 19.9452C81.5236 19.9228 81.7845 19.8536 82.1169 19.7375C82.4637 19.6093 82.7236 19.4797 82.8966 19.3487C83.1132 19.1815 83.2945 19.1048 83.4405 19.1185C83.6011 19.1202 83.6938 19.2026 83.7186 19.3656C83.7402 19.4212 83.6825 19.5363 83.5456 19.7109C83.4219 19.8868 83.279 20.0542 83.1168 20.213C82.9678 20.3732 82.8602 20.4501 82.7938 20.4439C82.754 20.4401 82.7038 20.4756 82.6432 20.5502C82.5838 20.6116 82.5191 20.6591 82.449 20.6927C82.3474 20.7769 82.2463 20.8545 82.1459 20.9254C82.0588 20.9976 81.9621 21.0287 81.8559 21.0187C81.8028 21.0137 81.7346 21.0274 81.6512 21.0597C81.5823 21.0801 81.5014 21.0858 81.4085 21.0771C81.272 21.1045 81.0681 21.0652 80.7968 20.9594C80.5388 20.8548 80.3837 20.6528 80.3315 20.3533C80.2921 20.2023 80.2674 19.9656 80.2575 19.6432C80.2489 19.3076 80.2867 18.9764 80.3709 18.6495C80.4465 18.4155 80.5002 18.1996 80.5322 18.0017C80.5642 17.8039 80.6038 17.667 80.6511 17.591C80.6548 17.5512 80.6636 17.4583 80.6773 17.3123C80.6922 17.153 80.6798 17.0715 80.64 17.0677C80.5869 17.0627 80.4514 17.1504 80.2336 17.3309C80.0303 17.4993 79.7822 17.717 79.4893 17.9841C79.2096 18.2525 78.9287 18.5342 78.6466 18.8291C78.3644 19.124 78.1319 19.3901 77.9489 19.6273C77.8157 19.7621 77.6927 19.9314 77.5798 20.1351C77.4669 20.3387 77.3894 20.452 77.347 20.4748C77.2441 20.5723 77.1301 20.5749 77.0048 20.4828C76.8928 20.392 76.7918 20.2552 76.7018 20.0727C76.6695 19.9893 76.6491 19.9204 76.6408 19.8661C76.6338 19.7985 76.6419 19.7122 76.6652 19.6072C76.7029 19.4903 76.7656 19.322 76.8532 19.1026C76.954 18.8844 77.0901 18.5758 77.2615 18.1767C77.4499 17.7391 77.614 17.346 77.7539 16.9976C77.9083 16.6371 77.9855 16.4569 77.9855 16.4569C77.9904 16.4038 77.8859 16.4475 77.6718 16.5881C77.459 16.7155 77.2092 16.8795 76.9225 17.0802C76.7893 17.215 76.5696 17.4154 76.2635 17.6812C75.9573 17.9471 75.6208 18.2503 75.254 18.5909C74.8872 18.9314 74.5318 19.2931 74.1879 19.6759C73.7518 20.1841 73.4485 20.4904 73.278 20.5949C73.1207 20.7007 72.9778 20.6538 72.8493 20.4542ZM83.1219 26.6417C83.0327 26.5931 82.9394 26.5174 82.8419 26.4145C82.7444 26.3116 82.6681 26.1973 82.6129 26.0716C82.5565 25.9592 82.5321 25.8631 82.5396 25.7835C82.547 25.7038 82.6002 25.4945 82.699 25.1556C82.7965 24.83 82.9214 24.4266 83.0737 23.9454C83.2381 23.4787 83.4103 22.9994 83.5904 22.5074C83.7826 22.0299 83.9698 21.6056 84.1519 21.2343C84.1847 21.1704 84.2916 20.9595 84.4725 20.6015C84.6679 20.2315 84.8642 19.7812 85.0614 19.2506C85.2 18.9154 85.3761 18.5369 85.5898 18.1151C85.8035 17.6932 86.0239 17.2719 86.2509 16.8513C86.4791 16.4174 86.6692 16.0335 86.821 15.6996C86.9729 15.3657 87.0987 15.0962 87.1983 14.8913C87.3124 14.6744 87.3786 14.54 87.3968 14.4881C87.4309 14.411 87.4769 14.3483 87.535 14.3002C87.6076 14.2401 87.679 14.1932 87.7491 14.1596C87.8204 14.1127 87.8767 14.0845 87.9177 14.075C88.1629 14.0311 88.3593 14.1499 88.507 14.4316C88.5621 14.5574 88.5623 14.698 88.5075 14.8535C88.4527 15.0091 88.361 15.2014 88.2324 15.4303L88.0556 15.8155L88.7874 15.7235C88.9069 15.7347 89.0523 15.7551 89.2236 15.7846C89.4095 15.802 89.5887 15.8188 89.7613 15.8351C89.9338 15.8513 90.0587 15.8764 90.1359 15.9104C90.4532 15.9536 90.6666 16.0339 90.7761 16.1513C90.8989 16.27 90.9987 16.42 91.0754 16.6013C91.1355 16.6739 91.2064 16.7743 91.2882 16.9025C91.3711 17.0174 91.4142 17.1286 91.4175 17.236C91.4494 17.4667 91.4264 17.7123 91.3484 17.9728C91.2848 18.2213 91.1815 18.466 91.0384 18.707C90.9085 18.9493 90.7406 19.1679 90.5348 19.3628C90.3436 19.5457 90.1421 19.6942 89.9305 19.8083C89.7928 19.8489 89.6677 19.8974 89.5553 19.9538C89.4441 19.997 89.3885 20.0185 89.3885 20.0185C89.369 20.0837 89.213 20.1761 88.9205 20.296C88.6293 20.4026 88.2988 20.4988 87.9292 20.5846C87.5596 20.6704 87.2401 20.7208 86.9709 20.7356C86.8767 20.7402 86.7427 20.741 86.5689 20.7381C86.3951 20.7351 86.2642 20.7028 86.1763 20.6409C86.0327 20.6007 85.9344 20.5781 85.8813 20.5731C85.8282 20.5681 85.7992 20.5921 85.7942 20.6452C85.7784 20.6705 85.6593 20.9406 85.4369 21.4554C85.2144 21.9702 84.9773 22.5706 84.7254 23.2568C84.4008 24.003 84.1377 24.5943 83.9361 25.0307C83.7331 25.4804 83.5746 25.8137 83.4605 26.0307C83.3596 26.2488 83.2856 26.3959 83.2383 26.4718C83.1897 26.561 83.1509 26.6176 83.1219 26.6417ZM86.3009 19.5277C86.3332 19.6111 86.4568 19.6495 86.6717 19.6429C86.9012 19.6243 87.1741 19.5695 87.4907 19.4787C87.8217 19.3759 88.1474 19.2592 88.4677 19.1285C88.7892 18.9846 89.0576 18.8357 89.273 18.6819C89.5962 18.3774 89.8638 18.0945 90.0758 17.8332C90.2891 17.5586 90.3337 17.3686 90.2097 17.2632C90.0836 17.0371 89.8208 16.912 89.4213 16.8879C89.0218 16.8638 88.5151 16.9836 87.9011 17.2473C87.6679 17.3058 87.4854 17.3958 87.3534 17.5173C87.236 17.6268 87.1288 17.7708 87.0317 17.9491C86.9346 18.1275 86.8138 18.3438 86.6694 18.5981C86.5225 18.8789 86.4223 19.0905 86.3688 19.2328C86.3152 19.3751 86.2926 19.4734 86.3009 19.5277ZM92.5378 23.0462C92.2794 23.0889 92.0786 23.0165 91.9355 22.829C91.8057 22.6427 91.7443 22.3691 91.7515 22.0082C91.7586 21.6472 91.8383 21.2262 91.9906 20.745C92.0719 20.5919 92.1394 20.4442 92.1929 20.3019C92.2477 20.1464 92.2794 20.0221 92.2882 19.9292C92.3272 19.799 92.3983 19.6115 92.5017 19.3667C92.6063 19.1087 92.7181 18.8447 92.8372 18.5746C92.9563 18.3046 93.0657 18.0671 93.1652 17.8622C93.2794 17.6452 93.3522 17.5114 93.3837 17.4608C93.4368 17.4658 93.4877 17.4237 93.5362 17.3345C93.5848 17.2454 93.6134 17.1543 93.6221 17.0614C93.6321 16.9552 93.6632 16.8376 93.7155 16.7086C93.7811 16.5808 93.8429 16.4929 93.901 16.4447C93.9072 16.3784 93.9273 16.3066 93.9614 16.2294C94.0099 16.1403 94.0367 16.0691 94.0417 16.016C94.0467 15.9629 94.0649 15.9111 94.0965 15.8605C94.1413 15.8111 94.1662 15.7599 94.1712 15.7068C94.2803 15.5429 94.4253 15.282 94.6062 14.924C94.8017 14.554 95.0075 14.1448 95.2237 13.6964C95.4532 13.2492 95.6688 12.8074 95.8705 12.371C96.0721 11.9346 96.2338 11.5681 96.3554 11.2715C96.4915 10.9629 96.5627 10.7754 96.5689 10.709C96.5789 10.6028 96.6129 10.5257 96.671 10.4776C96.7291 10.4295 96.8112 10.4104 96.9174 10.4204C96.961 10.3843 97.0099 10.3621 97.0643 10.3538C97.1319 10.3468 97.1923 10.3457 97.2454 10.3507C97.2454 10.3507 97.2694 10.3798 97.3175 10.4378C97.3656 10.4959 97.4378 10.5831 97.534 10.6992C97.6315 10.8021 97.6813 10.9139 97.6833 11.0347C97.6987 11.1566 97.6989 11.2973 97.6839 11.4566C97.6677 11.6291 97.6334 11.7799 97.5811 11.9089C97.5289 12.0379 97.4311 12.2229 97.288 12.464C97.1448 12.705 96.9222 13.0791 96.6201 13.5864C96.489 13.842 96.3525 14.0836 96.2106 14.3113C96.0699 14.5258 95.9971 14.6595 95.9921 14.7126C95.9871 14.7657 95.9531 14.8429 95.89 14.9441C95.8402 15.0466 95.7813 15.175 95.7132 15.3293C95.6501 15.4305 95.5622 15.5829 95.4493 15.7866C95.3377 15.977 95.2175 16.1867 95.0889 16.4157C94.9748 16.6326 94.8764 16.8243 94.7939 16.9906C94.7125 17.1437 94.6706 17.2335 94.6681 17.26C94.6631 17.3131 94.6515 17.3656 94.6333 17.4175C94.6283 17.4706 94.5967 17.5212 94.5386 17.5693C94.4855 17.5643 94.4486 17.601 94.4279 17.6794C94.4216 17.7458 94.4185 17.779 94.4185 17.779C94.4061 17.9117 94.2668 18.2535 94.0008 18.8044C93.7199 19.5146 93.4578 20.1663 93.2146 20.7595C92.9847 21.3539 92.8523 21.837 92.8174 22.2087C92.7875 22.5273 92.7609 22.7391 92.7376 22.844C92.7156 22.9357 92.649 23.0031 92.5378 23.0462ZM97.4664 22.7457C97.1827 22.7726 97.0016 22.7757 96.9232 22.7549C96.8593 22.7221 96.7606 22.6325 96.627 22.4861C96.4246 22.3599 96.2579 22.2103 96.1268 22.0373C96.009 21.8656 95.925 21.6903 95.8749 21.5115C95.8392 21.3206 95.8336 21.1661 95.8581 21.0479C95.9416 20.587 96.1012 20.0998 96.3369 19.5862C96.5726 19.0727 96.8462 18.5828 97.1579 18.1165C97.4695 17.6503 97.7942 17.2589 98.1319 16.9425C98.4841 16.614 98.8113 16.4103 99.1133 16.3315C99.3888 16.2503 99.6447 16.2341 99.8812 16.2831C100.118 16.3321 100.278 16.4744 100.363 16.7101C100.526 17.1137 100.457 17.355 100.155 17.4337C100.115 17.43 100.067 17.4455 100.01 17.4804C99.9542 17.502 99.9239 17.5393 99.919 17.5924C99.9696 17.6239 100.115 17.6443 100.355 17.6534C100.597 17.6493 100.839 17.6319 101.083 17.6013C101.342 17.5586 101.514 17.5078 101.6 17.4489C101.683 17.4165 101.745 17.4022 101.785 17.406C101.824 17.4097 101.923 17.4323 102.079 17.4738C102.299 17.5614 102.404 17.6517 102.396 17.7446C102.391 17.7977 102.406 17.8527 102.44 17.9095C102.476 17.9531 102.521 17.9773 102.574 17.9823C102.666 18.0043 102.647 18.0628 102.517 18.1578C102.401 18.254 102.202 18.3826 101.919 18.5435C101.652 18.6791 101.482 18.7704 101.411 18.8172C101.354 18.8521 101.339 18.9444 101.365 19.0941C101.447 19.3563 101.427 19.649 101.303 19.9722C101.178 20.2953 100.981 20.6182 100.709 20.9409C100.438 21.2637 100.115 21.5615 99.7416 21.8344C99.3823 22.0953 99.0002 22.3138 98.5953 22.4901C98.2049 22.6543 97.8286 22.7395 97.4664 22.7457ZM97.2102 21.8377C97.2633 21.8427 97.3587 21.8249 97.4965 21.7843C97.6354 21.7304 97.7466 21.6872 97.83 21.6549C97.8881 21.6068 97.9601 21.5533 98.046 21.4944C98.1464 21.4234 98.2237 21.3838 98.2781 21.3755C98.3312 21.3805 98.3994 21.3669 98.4828 21.3345C98.5675 21.2889 98.6896 21.1999 98.8494 21.0676C99.0104 20.922 99.2247 20.7078 99.4923 20.4249C99.7852 20.1578 100.016 19.9116 100.184 19.6864C100.354 19.4479 100.416 19.2193 100.369 19.0006C100.361 18.9463 100.324 18.9094 100.259 18.8899C100.207 18.8716 100.137 18.8316 100.049 18.7697C99.9167 18.7573 99.7937 18.7122 99.6805 18.6347C99.5817 18.545 99.465 18.4336 99.3302 18.3004L99.049 17.8723L98.6787 18.179C98.4463 18.3715 98.1907 18.6689 97.9119 19.0712C97.6476 19.4616 97.4152 19.8683 97.2148 20.2914C97.0156 20.7012 96.8909 21.031 96.8407 21.2807C96.8087 21.4786 96.8294 21.6145 96.9028 21.6883C96.9762 21.7622 97.0787 21.812 97.2102 21.8377Z" fill="white"/>
<path d="M8.25512 54.7579C8.1411 55.0094 7.84478 55.1209 7.59328 55.0068L3.49478 53.1488C3.24327 53.0348 3.13182 52.7385 3.24583 52.487C3.35985 52.2355 3.65617 52.124 3.90767 52.238L7.55078 53.8896L9.20237 50.2465C9.31638 49.995 9.6127 49.8835 9.8642 49.9976C10.1157 50.1116 10.2272 50.4079 10.1131 50.6594L8.25512 54.7579ZM44.5222 15.3294C33.3411 14.2453 22.488 19.2915 15.3205 26.9987C8.14995 34.7092 4.73967 44.9958 8.26772 54.3754L7.33174 54.7275C3.63056 44.8875 7.24591 34.2129 14.5882 26.3177C21.9335 18.4193 33.0804 13.2154 44.6187 14.3341L44.5222 15.3294Z" fill="#A5D239"/>
</svg>
