<svg width="120" height="57" viewBox="0 0 120 57" fill="none" xmlns="http://www.w3.org/2000/svg">
<path d="M3.88839 23.4235C3.84058 23.5589 3.74367 23.6363 3.59768 23.6556C3.465 23.6744 3.28187 23.6019 3.04828 23.438C2.88185 23.2847 2.77007 23.1625 2.71295 23.0714C2.6697 22.9932 2.69032 22.8455 2.77482 22.6285C2.85986 22.4249 3.00495 22.0586 3.21008 21.5297C3.25023 21.2078 3.33035 20.8843 3.45043 20.5591C3.56997 20.2205 3.6603 19.9833 3.72144 19.8473C3.76707 19.6586 3.86105 19.3478 4.0034 18.915C4.15853 18.4682 4.33172 17.974 4.52298 17.4324C4.72756 16.8902 4.92019 16.3819 5.10086 15.9074C5.28099 15.4196 5.41275 15.0539 5.49615 14.8102C5.70073 14.268 5.91088 13.6989 6.1266 13.1029C6.34231 12.5069 6.63832 11.7541 7.01463 10.8445C7.06245 10.7091 7.08335 10.5682 7.07732 10.4216C7.08463 10.2745 6.97504 10.2056 6.74856 10.2149C6.60932 10.0739 6.53003 9.93034 6.51069 9.78434C6.49079 9.62502 6.55275 9.50905 6.69656 9.43642L7.71844 8.97408C8.33856 8.80181 8.97638 8.73557 9.6319 8.77536C10.3002 8.80128 10.9337 8.9554 11.5325 9.23773C12.1873 9.58447 12.6558 9.94554 12.9381 10.3209C13.2199 10.683 13.3687 11.0572 13.3846 11.4436C13.4138 11.8293 13.3628 12.2118 13.2316 12.5908C13.1365 12.8749 12.9426 13.1898 12.6499 13.5355C12.3705 13.8806 12.0378 14.2279 11.6518 14.5773C11.2791 14.9263 10.8854 15.2494 10.4706 15.5466C10.0685 15.83 9.69068 16.0524 9.33701 16.2137C9.01052 16.3873 8.6699 16.5414 8.31513 16.6761C7.96036 16.8108 7.59226 16.946 7.21085 17.0818C6.99989 17.1438 6.74786 17.1808 6.45478 17.1929C6.16169 17.2049 5.94078 17.1873 5.79205 17.14L5.49092 18.0932C5.37741 18.5783 5.17355 19.3006 4.87936 20.2601C4.5985 21.2191 4.26817 22.2736 3.88839 23.4235ZM11.8307 23.3174C11.7258 23.3617 11.5998 23.3802 11.4527 23.3729C11.3189 23.3651 11.0947 23.2675 10.7801 23.0803C10.1797 22.758 9.57629 22.3624 8.96987 21.8936C8.36345 21.4248 7.67663 20.7858 6.90943 19.9766C6.61599 19.655 6.3636 19.3585 6.15227 19.0869C5.95427 18.8148 5.73829 18.43 5.50434 17.9325L5.18024 16.8649L5.70747 16.543L6.45642 17.2328C6.68873 17.6904 6.98017 18.1254 7.33074 18.5381C7.69463 18.9501 8.02996 19.3167 8.33673 19.6377C8.58802 19.9076 8.92837 20.2339 9.35777 20.6166C9.78663 20.986 10.2416 21.3409 10.7226 21.6815C11.2037 22.022 11.6346 22.2779 12.0152 22.449C12.0979 22.5124 12.1287 22.6112 12.1075 22.7455C12.0863 22.8798 12.0446 23.0016 11.9824 23.111C11.934 23.233 11.8835 23.3018 11.8307 23.3174ZM6.36965 16.0955C6.67496 16.0562 7.03165 15.9682 7.43971 15.8313C7.84722 15.6811 8.25391 15.5109 8.65978 15.3208C9.03846 15.1184 9.43575 14.8819 9.85166 14.6113C10.2803 14.3268 10.6746 14.017 11.0345 13.6819C11.3944 13.3469 11.6804 13.0015 11.8927 12.6458C12.1183 12.2896 12.2106 11.9388 12.1697 11.5936C12.1626 11.4204 12.0886 11.2433 11.9477 11.0622C11.8068 10.8812 11.6401 10.7212 11.4476 10.5823C11.2551 10.4435 11.0711 10.3509 10.8957 10.3048C10.3574 10.1934 9.9142 10.1249 9.56619 10.0992C9.21817 10.0734 8.95282 10.111 8.77014 10.2119C8.58692 10.2995 8.46747 10.4779 8.41181 10.7471C8.41345 10.7871 8.36564 10.9225 8.26837 11.1533C8.1711 11.3842 8.04937 11.6694 7.90319 12.0091C7.77033 12.3481 7.63829 12.7072 7.50707 13.0862C7.15303 13.8881 6.88457 14.4996 6.70171 14.9208C6.5183 15.3287 6.40323 15.6137 6.35651 15.7757C6.30979 15.9378 6.31417 16.0444 6.36965 16.0955ZM17.0661 20.9805C16.7962 21.2318 16.4755 21.385 16.1042 21.4403C15.7461 21.4951 15.3909 21.4563 15.0385 21.324C14.6855 21.1784 14.3893 20.9503 14.1496 20.6399C13.9111 20.3561 13.7509 20.0291 13.669 19.6588C13.5865 19.2752 13.5593 18.7759 13.5874 18.1609C13.606 17.6397 13.7512 17.1133 14.0229 16.5817C14.2941 16.0368 14.6277 15.5493 15.0238 15.1194C15.4331 14.6889 15.841 14.3852 16.2474 14.2084C16.4417 14.0669 16.6058 14.0001 16.7396 14.008C16.8861 14.002 17.1065 14.0063 17.4007 14.0209C17.7087 14.0482 17.9376 14.0989 18.0875 14.1728C18.2506 14.2462 18.3816 14.3475 18.4803 14.4769C18.6883 14.6685 18.8298 14.8629 18.9046 15.06C18.9789 15.2438 19.0198 15.4289 19.0275 15.6154C18.9862 15.9107 18.8012 16.2786 18.4723 16.7191C18.1562 17.1458 17.7306 17.5036 17.1953 17.7925C16.9061 17.8978 16.588 17.9509 16.2411 17.9518C15.8941 17.9527 15.6041 17.8779 15.3711 17.7273C15.1136 17.6311 14.9479 17.6579 14.874 17.8078C14.7995 17.9443 14.7399 18.2803 14.6952 18.816C14.6627 19.3244 14.718 19.6958 14.8611 19.9301C15.0036 20.1511 15.189 20.2769 15.4171 20.3076C15.6857 20.3499 15.8938 20.3814 16.0415 20.402C16.2019 20.4088 16.3926 20.3409 16.6136 20.1984C16.8213 20.0564 16.9515 19.9777 17.0042 19.9621C17.0564 19.9333 17.0953 19.905 17.1208 19.8773C17.1592 19.8357 17.2422 19.7455 17.3699 19.6068C17.4594 19.5097 17.5299 19.4401 17.5816 19.398C17.6327 19.3425 17.6915 19.3134 17.7581 19.3106C17.8247 19.3079 17.886 19.3387 17.9421 19.4032C17.9975 19.4543 18.0525 19.492 18.1069 19.5165C18.2401 19.511 18.27 19.5899 18.1966 19.753C18.1366 19.9156 18.0047 20.1145 17.8008 20.3498C17.5964 20.5717 17.3515 20.7819 17.0661 20.9805ZM16.872 16.7449C17.0158 16.6722 17.1652 16.5727 17.3202 16.4462C17.4745 16.3064 17.602 16.1611 17.7026 16.0101C17.8159 15.8453 17.8704 15.7097 17.866 15.6031C17.8583 15.4166 17.7655 15.2669 17.5873 15.1541C17.4087 15.028 17.1481 15.0187 16.8055 15.1262C16.6606 15.1722 16.4982 15.279 16.3183 15.4465C16.1378 15.6007 15.9648 15.7746 15.7993 15.9682C15.6471 16.1613 15.5207 16.3333 15.4201 16.4842C15.3329 16.6346 15.3031 16.7226 15.3309 16.7481C15.3736 16.8131 15.489 16.8617 15.6772 16.894C15.8648 16.913 16.0715 16.9112 16.2975 16.8886C16.5367 16.8654 16.7282 16.8175 16.872 16.7449ZM27.1125 20.3475C26.846 20.3584 26.624 20.3142 26.4465 20.2147C26.2683 20.1019 26.1139 19.9148 25.983 19.6533C25.9221 19.469 25.867 19.2644 25.8177 19.0396C25.7812 18.8008 25.7588 18.5816 25.7506 18.3817C25.7419 18.1686 25.7561 18.0279 25.7933 17.9596C25.8444 17.9042 25.8606 17.8101 25.8418 17.6774C25.8358 17.5309 25.8295 17.3777 25.8229 17.2178C25.7986 16.9519 25.726 16.8081 25.605 16.7864C25.4968 16.7508 25.3386 16.7973 25.1303 16.926C24.8966 17.0824 24.5917 17.2951 24.2158 17.5641C23.8393 17.8197 23.4439 18.1029 23.0296 18.4135C22.6287 18.7235 22.2483 19.0461 21.8884 19.3811C21.6084 19.7129 21.4387 19.9668 21.3792 20.1427C21.3325 20.3047 21.2559 20.388 21.1493 20.3923C21.0449 20.45 20.9519 20.4605 20.8703 20.4238C20.8015 20.3733 20.6983 20.2974 20.5607 20.1963C20.4631 20.0936 20.3658 19.9975 20.2687 19.9081C20.171 19.8053 20.1078 19.7279 20.079 19.6757C20.0762 19.6091 20.0905 19.4684 20.1217 19.2536C20.1529 19.0388 20.1907 18.8237 20.2353 18.6084C20.2931 18.3925 20.334 18.2507 20.3579 18.183C20.4245 18.1802 20.4751 18.1114 20.5096 17.9766C20.5574 17.8412 20.6313 17.6913 20.7313 17.5271C20.7514 17.3661 20.8092 17.1502 20.9049 16.8794C21.0133 16.5947 21.1097 16.3439 21.1942 16.1269C21.3676 15.7995 21.4832 15.5279 21.5411 15.312C21.6122 15.0955 21.6546 14.8269 21.6681 14.5061C21.6526 14.4533 21.664 14.4062 21.7023 14.3646C21.7401 14.3096 21.7856 14.2811 21.8389 14.2789C21.9411 14.1679 22.0666 14.1361 22.2153 14.1833C22.3635 14.2173 22.5008 14.3117 22.6273 14.4667C22.8802 14.7765 22.9871 15.1058 22.9481 15.4543C22.9218 15.789 22.7284 16.2774 22.3677 16.9194C22.2832 17.1364 22.2168 17.3059 22.1685 17.428C22.1329 17.5362 22.1164 17.6236 22.1192 17.6902C22.1192 17.6902 22.1839 17.6409 22.3133 17.5422C22.456 17.4429 22.6115 17.3297 22.7797 17.2027C22.9608 17.0618 23.1032 16.9559 23.207 16.8849C23.2709 16.8156 23.4192 16.6894 23.6519 16.5063C23.8845 16.3233 24.1308 16.1464 24.3907 15.9755C24.6633 15.7909 24.8657 15.6825 24.9979 15.6503C25.1023 15.5927 25.2136 15.5414 25.3318 15.4965C25.4495 15.4383 25.535 15.4081 25.5883 15.4059C25.6949 15.4015 25.8306 15.456 25.9954 15.5693C26.1729 15.6688 26.3383 15.7954 26.4914 15.9493C26.644 16.0898 26.7358 16.2128 26.7668 16.3183C26.769 16.3716 26.7712 16.4249 26.7733 16.4782C26.7889 16.5309 26.8044 16.5836 26.8199 16.6364C26.8803 16.8074 26.9165 17.0394 26.9285 17.3325C26.9539 17.625 26.9582 17.8918 26.9414 18.1327C26.9246 18.3735 26.8837 18.5153 26.8188 18.558C26.8188 18.558 26.8196 18.578 26.8212 18.618C26.8356 18.6441 26.8695 18.656 26.9228 18.6539C26.925 18.7071 26.9263 18.7405 26.9269 18.7538C26.8603 18.7565 26.8361 18.8176 26.8543 18.9369C26.872 19.0429 26.9169 19.1612 26.989 19.2917C27.0744 19.4216 27.1587 19.5249 27.242 19.6016C27.4084 19.7549 27.4813 19.9053 27.4607 20.053C27.4395 20.1873 27.3234 20.2855 27.1125 20.3475ZM34.18 20.7777C34.1267 20.7799 34.0465 20.7765 33.9394 20.7676C33.845 20.7448 33.7626 20.6881 33.6922 20.5976C33.4825 20.366 33.3477 20.1714 33.2879 20.0137C33.228 19.856 33.2118 19.6232 33.2392 19.3151C33.2576 19.1142 33.2638 18.9405 33.2578 18.7939C33.2645 18.6335 33.2724 18.4997 33.2813 18.3926C33.2258 18.3415 33.1276 18.3856 32.9865 18.5248C32.8582 18.6502 32.678 18.8111 32.4459 19.0074C32.0143 19.5456 31.6244 19.962 31.2762 20.2565C30.9407 20.5372 30.635 20.7299 30.3591 20.8346C30.0826 20.9261 29.8173 20.9636 29.5631 20.9474C29.3355 20.9301 29.1518 20.8442 29.012 20.6898C28.8717 20.5221 28.7761 20.3058 28.7252 20.041C28.6876 19.7757 28.6758 19.4893 28.6899 19.1818C28.7251 18.7399 28.8011 18.3165 28.9179 17.9113C29.048 17.5056 29.2628 17.0498 29.5623 16.5437C29.6979 16.2713 29.8804 16.0035 30.1098 15.7406C30.352 15.4637 30.6155 15.2194 30.9004 15.0075C31.198 14.7818 31.4848 14.6165 31.7607 14.5118C32.0622 14.3793 32.3725 14.2998 32.6917 14.2733C33.0104 14.2336 33.2979 14.2484 33.5543 14.318C33.7174 14.3913 33.8456 14.4261 33.9389 14.4223C34.0455 14.4179 34.1227 14.348 34.1705 14.2126C34.2327 14.1033 34.2928 13.9407 34.3506 13.7248C34.4079 13.4956 34.4799 13.2991 34.5666 13.1354L34.9529 11.8184C35.0846 11.4527 35.2289 11.0665 35.3856 10.6597C35.5424 10.2529 35.7289 9.75818 35.9452 9.17548C36.1541 8.73987 36.3305 8.48575 36.4743 8.41311C36.6176 8.32716 36.7863 8.37361 36.9805 8.55245C37.1341 8.71962 37.1956 8.91726 37.165 9.14538C37.1338 9.36017 37.0281 9.71148 36.848 10.1993C36.7607 10.3497 36.6866 10.4928 36.6254 10.6288C36.5637 10.7514 36.4784 10.9484 36.3695 11.2198C36.2133 11.6399 36.0687 12.0195 35.9359 12.3585C35.8024 12.6843 35.6643 13.0569 35.5214 13.4765C35.4769 13.6918 35.4137 13.9413 35.332 14.2249C35.2635 14.508 35.2073 14.7638 35.1633 14.9925C35.1321 15.2073 35.0937 15.409 35.0481 15.5977C35.0152 15.7726 34.9722 15.8611 34.9189 15.8632C34.8172 15.9875 34.7261 16.2048 34.6454 16.515C34.5642 16.8119 34.4968 17.1216 34.4434 17.4441C34.4032 17.766 34.3675 18.0344 34.3363 18.2492C34.3163 18.4101 34.3048 18.6174 34.3018 18.8711C34.2989 19.1248 34.3024 19.3715 34.3122 19.6113C34.3215 19.8378 34.3281 19.9977 34.3319 20.0909C34.344 20.384 34.345 20.5708 34.3349 20.6513C34.3249 20.7317 34.2733 20.7739 34.18 20.7777ZM29.8719 19.6937C30.1516 19.6822 30.4398 19.5502 30.7363 19.2978C31.0462 19.0449 31.355 18.7653 31.6627 18.4591C31.8549 18.2644 32.0579 18.0092 32.2718 17.6935C32.499 17.3772 32.7129 17.0615 32.9134 16.7463C33.1273 16.4306 33.2962 16.1568 33.4201 15.9248C33.5435 15.6796 33.6041 15.5303 33.6019 15.477C33.5992 15.4104 33.5373 15.3662 33.4163 15.3445C33.2953 15.3228 33.1549 15.3152 32.995 15.3218C32.8479 15.3145 32.7283 15.3261 32.6361 15.3565C32.3458 15.4352 32.0582 15.5804 31.7733 15.7923C31.5018 16.0036 31.2077 16.316 30.891 16.7293C30.5622 17.1699 30.2938 17.6213 30.0859 18.0835C29.8914 18.5452 29.7738 18.9304 29.7331 19.239C29.6924 19.5476 29.7386 19.6991 29.8719 19.6937ZM37.8912 20.2049C37.6902 20.1865 37.5113 20.0537 37.3544 19.8066C37.2102 19.5456 37.1204 19.3091 37.085 19.0971C37.094 18.9899 37.101 18.8362 37.1061 18.6358C37.1245 18.4349 37.1427 18.2273 37.1606 18.013C37.2035 17.7577 37.2641 17.4483 37.3426 17.0848C37.4206 16.7079 37.4985 16.3311 37.5764 15.9542C37.6677 15.5768 37.7478 15.2533 37.8168 14.9835C37.8857 14.7138 37.9325 14.5518 37.9569 14.4974C38.0192 14.3881 38.1246 14.357 38.2734 14.4043C38.4221 14.4516 38.5453 14.5266 38.6429 14.6293C38.7272 14.7326 38.7791 14.8573 38.7984 15.0033C38.8311 15.1487 38.8198 15.3627 38.7647 15.6452C38.7229 15.9271 38.6333 16.3445 38.4959 16.8973C38.3712 17.4362 38.2758 17.8738 38.2096 18.2101C38.1561 18.5326 38.1434 18.8734 38.1715 19.2326C38.1368 19.6877 38.1083 19.9691 38.0861 20.0768C38.0633 20.1711 37.9983 20.2138 37.8912 20.2049ZM39.8616 12.1372C39.81 12.1794 39.7575 12.2015 39.7042 12.2037C39.6637 12.192 39.5888 12.1551 39.4795 12.0928C39.3857 12.0834 39.2633 12.0283 39.1124 11.9278C38.9743 11.8134 38.8494 11.6984 38.7379 11.5829C38.6392 11.4535 38.5893 11.3755 38.5882 11.3488C38.5694 11.2161 38.5692 11.0493 38.5877 10.8484C38.6189 10.6336 38.6845 10.4441 38.7845 10.2799C38.8839 10.1023 39.0333 10.0027 39.2326 9.9812C39.2859 9.97901 39.3328 9.98376 39.3733 9.99544C39.4138 10.0071 39.5356 10.0488 39.7387 10.1205C39.8535 10.316 39.9694 10.5381 40.0864 10.7868C40.2028 11.0223 40.2593 11.2601 40.2558 11.5005C40.2518 11.7275 40.1204 11.9397 39.8616 12.1372ZM41.5438 19.6945C41.3934 19.6073 41.2552 19.4929 41.1293 19.3512C41.0029 19.1963 40.9347 18.9989 40.9248 18.7591C40.9194 18.6259 40.9367 18.3983 40.9769 18.0764C41.017 17.7545 41.0755 17.3918 41.1523 16.9883C41.2292 16.5848 41.3071 16.208 41.3861 15.8577C41.5095 15.6125 41.6129 15.368 41.6963 15.1244C41.7797 14.8808 41.8203 14.7323 41.8181 14.679C41.8382 14.5181 41.8638 14.3302 41.895 14.1154C41.9396 13.9 41.9849 13.7047 42.0311 13.5293C42.0773 13.3539 42.1131 13.2524 42.1387 13.2246C42.2025 13.1553 42.2808 13.112 42.3735 13.0949C42.4657 13.0644 42.5595 13.0739 42.6549 13.1234C42.7632 13.1589 42.8467 13.2423 42.9054 13.3733C43.0585 13.5271 43.1397 13.7173 43.149 13.9438C43.1578 14.1569 43.0977 14.4797 42.9686 14.912C42.8597 15.1834 42.7526 15.5014 42.6475 15.866C42.5424 16.2306 42.4495 16.568 42.3689 16.8783C42.301 17.1746 42.2625 17.3764 42.2536 17.4835L41.8589 17.6198C42.0766 17.3974 42.2807 17.1688 42.4712 16.9341C42.6612 16.6861 42.8001 16.4936 42.8879 16.3565C43.1018 16.0408 43.2845 15.7798 43.4362 15.5734C43.6006 15.3531 43.81 15.0909 44.0644 14.7869C44.3183 14.4695 44.5704 14.2724 44.8208 14.1953C45.0839 14.1045 45.2888 14.056 45.4353 14.05C45.7306 14.0912 45.97 14.2349 46.1536 14.4809C46.35 14.713 46.4847 15.0678 46.5577 15.5452C46.5653 15.7317 46.5544 15.9523 46.5248 16.2071C46.5086 16.4613 46.5004 16.5884 46.5004 16.5884C46.5004 16.5884 46.6013 16.4442 46.8029 16.1556C47.0179 15.8666 47.3051 15.5478 47.6644 15.1995C47.9099 15.0025 48.1519 14.8858 48.3906 14.8493C48.6288 14.7995 48.8452 14.8707 49.0399 15.0629C49.394 15.2352 49.6322 15.5123 49.7547 15.8942C49.8766 16.2629 49.9229 16.7414 49.8937 17.3297C49.868 17.6778 49.872 17.9378 49.9058 18.1099C49.939 18.2687 49.9855 18.4269 50.0454 18.5846C50.1541 18.6335 50.1788 18.7459 50.1193 18.9218C50.0592 19.0844 49.9826 19.1676 49.8893 19.1715C49.7561 19.1769 49.6018 19.1566 49.4264 19.1104C49.2644 19.0637 49.1143 18.9831 48.9761 18.8687C48.8508 18.7404 48.7834 18.563 48.7741 18.3365L48.7232 17.0976C48.7112 16.8045 48.688 16.5653 48.6537 16.3798C48.6327 16.1939 48.5947 16.082 48.5398 16.0442C48.39 15.9703 48.1804 16.0657 47.911 16.3303C47.6417 16.5949 47.3559 16.9469 47.0537 17.3864C46.7514 17.8258 46.4698 18.2778 46.2086 18.7422C45.9725 19.1656 45.8224 19.412 45.7586 19.4813C45.7075 19.5368 45.6067 19.5209 45.4564 19.4337C45.1594 19.3525 44.9677 19.2336 44.8812 19.077C44.8075 18.9065 44.7929 18.7136 44.8374 18.4983C44.8947 18.2691 44.9621 17.9594 45.0395 17.5692C45.1302 17.1785 45.2148 16.8014 45.2932 16.4378C45.3712 16.061 45.4202 15.7921 45.4402 15.6311C45.3826 15.5267 45.288 15.4973 45.1564 15.5427C45.0376 15.5743 44.9135 15.6394 44.7841 15.7382C44.6286 15.8513 44.4436 16.0591 44.2292 16.3615C44.0148 16.6639 43.7956 17.0131 43.5717 17.4093C43.4222 17.669 43.2661 17.929 43.1033 18.1892C42.94 18.4361 42.7888 18.6559 42.65 18.8484C42.5111 19.0409 42.3903 19.186 42.2875 19.2836C42.1131 19.5844 41.9931 19.7494 41.9276 19.7788C41.862 19.8082 41.7341 19.7801 41.5438 19.6945ZM52.1662 19.2581C52.1129 19.2603 52.0458 19.2497 51.9647 19.2263C51.8965 19.1891 51.8624 19.1705 51.8624 19.1705C51.8602 19.1172 51.8375 19.0514 51.7942 18.9731C51.7643 18.8943 51.7482 18.8282 51.746 18.7749C51.6506 18.7255 51.5951 18.6744 51.5796 18.6216C51.5635 18.5556 51.5791 18.4482 51.6264 18.2994C51.7009 18.1629 51.7987 17.9454 51.9199 17.6468C52.0405 17.3349 52.167 17.0028 52.2993 16.6504C52.431 16.2847 52.5564 15.9259 52.6754 15.5741C52.7944 15.2222 52.8956 14.9245 52.979 14.6808C53.0618 14.4239 53.1088 14.2685 53.12 14.2147C53.1178 14.1614 53.135 14.0939 53.1717 14.0124C53.2084 13.9308 53.2523 13.8623 53.3034 13.8068C53.4061 13.7092 53.5191 13.6978 53.6423 13.7729C53.7649 13.8345 53.8698 13.9503 53.9568 14.1202C54.0566 14.2763 54.1106 14.4542 54.1189 14.654C54.1227 14.7473 54.0659 14.9898 53.9486 15.3816C53.8307 15.7601 53.6692 16.2138 53.464 16.7427C53.2722 17.271 53.0541 17.8071 52.8095 18.3509C52.6256 18.7454 52.5091 18.9971 52.4602 19.1059C52.4108 19.2013 52.3128 19.252 52.1662 19.2581ZM54.7926 11.5638C54.6327 11.5703 54.457 11.5175 54.2656 11.4053C54.0869 11.2792 53.9272 11.1256 53.7863 10.9446C53.6582 10.7496 53.59 10.5523 53.5818 10.3524C53.5791 10.2858 53.6152 10.1909 53.6902 10.0678C53.7652 9.94458 53.8402 9.82139 53.9152 9.69821C53.9902 9.57503 54.0272 9.50011 54.0261 9.47347C54.1327 9.46909 54.2129 9.47247 54.2667 9.4836C54.3333 9.48086 54.4144 9.50422 54.5098 9.55368C54.67 9.88071 54.8611 10.1464 55.083 10.3508C55.3182 10.5547 55.4389 10.7299 55.4449 10.8764C55.4569 11.1695 55.438 11.3571 55.3879 11.4392C55.3374 11.508 55.1389 11.5495 54.7926 11.5638ZM59.0424 19.2558C58.7725 19.5071 58.4518 19.6604 58.0805 19.7157C57.7224 19.7704 57.3672 19.7316 57.0148 19.5993C56.6618 19.4537 56.3656 19.2257 56.1259 18.9152C55.8874 18.6314 55.7272 18.3044 55.6453 17.9341C55.5628 17.5505 55.5356 17.0512 55.5637 16.4362C55.5823 15.915 55.7275 15.3886 55.9992 14.857C56.2704 14.3121 56.604 13.8246 57.0001 13.3947C57.4094 12.9642 57.8173 12.6605 58.2237 12.4837C58.418 12.3423 58.5821 12.2755 58.7159 12.2833C58.8624 12.2773 59.0828 12.2816 59.377 12.2962C59.685 12.3236 59.9139 12.3742 60.0638 12.4481C60.2269 12.5215 60.3579 12.6229 60.4566 12.7522C60.6646 12.9439 60.8061 13.1382 60.8809 13.3353C60.9552 13.5191 60.9961 13.7042 61.0038 13.8907C60.9625 14.186 60.7775 14.5539 60.4486 14.9945C60.1325 15.4211 59.7069 15.7789 59.1716 16.0678C58.8824 16.1731 58.5643 16.2262 58.2174 16.2271C57.8704 16.228 57.5804 16.1532 57.3474 16.0026C57.0899 15.9065 56.9242 15.9333 56.8503 16.0831C56.7758 16.2196 56.7162 16.5557 56.6715 17.0913C56.639 17.5997 56.6943 17.9711 56.8374 18.2054C56.9799 18.4264 57.1653 18.5523 57.3934 18.5829C57.662 18.6253 57.8701 18.6567 58.0178 18.6774C58.1782 18.6841 58.3689 18.6162 58.5899 18.4737C58.7976 18.3317 58.9278 18.253 58.9805 18.2375C59.0327 18.2086 59.0716 18.1803 59.0971 18.1526C59.1355 18.111 59.2185 18.0208 59.3462 17.8822C59.4357 17.7851 59.5062 17.7154 59.5579 17.6733C59.609 17.6178 59.6678 17.5887 59.7344 17.586C59.801 17.5832 59.8623 17.6141 59.9184 17.6785C59.9738 17.7296 60.0288 17.7674 60.0832 17.7918C60.2164 17.7864 60.2463 17.8652 60.1729 18.0283C60.1129 18.1909 59.981 18.3899 59.7771 18.6251C59.5727 18.847 59.3278 19.0572 59.0424 19.2558ZM58.8483 15.0202C58.9921 14.9476 59.1415 14.848 59.2965 14.7215C59.4508 14.5817 59.5783 14.4364 59.6789 14.2855C59.7922 14.1207 59.8467 13.985 59.8423 13.8784C59.8346 13.6919 59.7418 13.5423 59.5636 13.4295C59.385 13.3034 59.1244 13.2941 58.7818 13.4015C58.6369 13.4475 58.4745 13.5543 58.2946 13.7218C58.1141 13.876 57.9411 14.0499 57.7756 14.2436C57.6234 14.4366 57.497 14.6086 57.3964 14.7596C57.3092 14.9099 57.2794 14.9979 57.3072 15.0235C57.3499 15.0884 57.4653 15.1371 57.6535 15.1694C57.8411 15.1883 58.0478 15.1865 58.2738 15.1639C58.513 15.1407 58.7045 15.0928 58.8483 15.0202ZM69.0888 18.6228C68.8223 18.6338 68.6003 18.5895 68.4228 18.4901C68.2446 18.3773 68.0902 18.1901 67.9593 17.9286C67.8984 17.7443 67.8433 17.5397 67.794 17.3149C67.7575 17.0762 67.7351 16.8569 67.7269 16.6571C67.7182 16.4439 67.7324 16.3032 67.7696 16.235C67.8207 16.1795 67.8369 16.0854 67.8181 15.9527C67.8121 15.8062 67.8058 15.653 67.7992 15.4931C67.7749 15.2272 67.7023 15.0834 67.5813 15.0617C67.4731 15.0261 67.3149 15.0727 67.1066 15.2013C66.8729 15.3577 66.568 15.5704 66.1921 15.8394C65.8156 16.0951 65.4202 16.3782 65.0059 16.6888C64.605 16.9989 64.2246 17.3214 63.8647 17.6565C63.5848 17.9882 63.415 18.2421 63.3555 18.418C63.3088 18.5801 63.2322 18.6633 63.1256 18.6677C63.0212 18.7253 62.9282 18.7358 62.8466 18.6991C62.7778 18.6486 62.6746 18.5728 62.537 18.4717C62.4394 18.3689 62.3421 18.2728 62.245 18.1834C62.1473 18.0807 62.0841 18.0032 62.0553 17.951C62.0525 17.8844 62.0668 17.7437 62.098 17.5289C62.1292 17.3141 62.1671 17.099 62.2116 16.8837C62.2694 16.6678 62.3103 16.526 62.3342 16.4583C62.4008 16.4556 62.4514 16.3868 62.4859 16.2519C62.5337 16.1165 62.6076 15.9667 62.7076 15.8024C62.7277 15.6415 62.7855 15.4256 62.8812 15.1547C62.9896 14.87 63.086 14.6192 63.1705 14.4022C63.3439 14.0748 63.4595 13.8032 63.5174 13.5873C63.5885 13.3709 63.6309 13.1022 63.6444 12.7814C63.6289 12.7287 63.6403 12.6815 63.6786 12.6399C63.7164 12.585 63.7619 12.5564 63.8152 12.5542C63.9174 12.4432 64.0429 12.4114 64.1916 12.4587C64.3398 12.4926 64.4771 12.5871 64.6036 12.742C64.8565 13.0519 64.9634 13.3811 64.9244 13.7297C64.8981 14.0644 64.7047 14.5527 64.344 15.1947C64.2595 15.4117 64.1931 15.5812 64.1448 15.7033C64.1092 15.8115 64.0927 15.899 64.0955 15.9656C64.0955 15.9656 64.1602 15.9162 64.2896 15.8175C64.4323 15.7182 64.5878 15.6051 64.756 15.478C64.9371 15.3372 65.0795 15.2312 65.1833 15.1602C65.2472 15.0909 65.3955 14.9647 65.6282 14.7817C65.8609 14.5986 66.1071 14.4217 66.367 14.2509C66.6397 14.0662 66.842 13.9578 66.9742 13.9257C67.0786 13.868 67.1899 13.8167 67.3081 13.7718C67.4258 13.7136 67.5113 13.6834 67.5646 13.6812C67.6712 13.6769 67.8069 13.7313 67.9717 13.8447C68.1492 13.9441 68.3146 14.0708 68.4677 14.2246C68.6203 14.3651 68.7121 14.4881 68.7431 14.5936C68.7453 14.6469 68.7475 14.7002 68.7496 14.7535C68.7652 14.8062 68.7807 14.859 68.7962 14.9117C68.8566 15.0827 68.8928 15.3148 68.9048 15.6078C68.9302 15.9004 68.9345 16.1671 68.9177 16.408C68.9009 16.6489 68.86 16.7907 68.7951 16.8334C68.7951 16.8334 68.7959 16.8534 68.7975 16.8933C68.8119 16.9194 68.8458 16.9314 68.8991 16.9292C68.9013 16.9825 68.9026 17.0158 68.9032 17.0291C68.8366 17.0318 68.8124 17.0929 68.8306 17.2122C68.8483 17.3183 68.8932 17.4365 68.9653 17.567C69.0507 17.6969 69.135 17.8002 69.2183 17.8769C69.3847 18.0302 69.4576 18.1806 69.437 18.3283C69.4158 18.4626 69.2997 18.5608 69.0888 18.6228ZM73.5451 19.3205C73.3564 19.2748 73.2007 19.2212 73.0781 19.1595C72.9549 19.0845 72.7898 18.9645 72.5829 18.7995C72.4143 18.593 72.2795 18.3983 72.1786 18.2156C72.091 18.0324 72.0289 17.8215 71.9924 17.5827C71.9554 17.3307 71.9289 17.0115 71.9131 16.6252C71.9065 16.4653 71.9233 16.2244 71.9634 15.9025C72.0169 15.5801 72.0765 15.244 72.1422 14.8943C72.2207 14.5308 72.2875 14.2078 72.3426 13.9253C72.411 13.6422 72.4503 13.4605 72.4603 13.38C72.4931 13.2052 72.4224 13.108 72.2481 13.0885C72.0739 13.0689 71.8804 13.0702 71.6678 13.0923C71.468 13.1005 71.3339 13.086 71.2657 13.0488C71.2119 13.0376 71.1844 13.0187 71.1833 12.9921C71.1816 12.9521 71.1808 12.9321 71.1808 12.9321C71.1786 12.8789 71.1706 12.8458 71.1567 12.8331C71.1556 12.8064 71.1337 12.7606 71.091 12.6956C71.0622 12.6434 71.0725 12.5696 71.122 12.4742C71.1842 12.3649 71.2881 12.2939 71.4335 12.2612C71.5523 12.2296 71.7113 12.2031 71.9106 12.1816C72.1227 12.1462 72.3339 12.0908 72.5443 12.0154C72.7542 11.9267 72.9225 11.7997 73.0491 11.6344C73.157 11.3363 73.2835 11.0042 73.4285 10.6379C73.5736 10.2717 73.7137 9.94565 73.8487 9.65986C73.9966 9.36021 74.0958 9.17598 74.1463 9.10718C74.3679 8.97798 74.5325 8.92451 74.6401 8.94678C74.7473 8.95572 74.8718 9.06403 75.0138 9.27171C75.0842 9.36223 75.1339 9.43358 75.1627 9.48578C75.2049 9.53742 75.2148 9.61708 75.1925 9.72475C75.1703 9.83242 75.1038 10.002 74.9933 10.2334C74.896 10.4642 74.7429 10.7975 74.5339 11.2331C74.4728 11.369 74.4177 11.4914 74.3688 11.6001C74.3194 11.6956 74.2947 11.7433 74.2947 11.7433C74.3485 11.7544 74.4287 11.7578 74.5353 11.7534C74.6418 11.7491 74.7748 11.7369 74.9341 11.717C75.0796 11.6844 75.2652 11.6567 75.4912 11.6341C75.7166 11.5982 75.8964 11.5908 76.0307 11.6119C76.3371 11.5993 76.5661 11.65 76.7175 11.7639C76.8685 11.8644 76.9561 12.0476 76.9803 12.3135C77.013 12.459 76.9832 12.547 76.8911 12.5774C76.8122 12.6074 76.593 12.6297 76.2333 12.6445C76.1134 12.6494 75.9271 12.6637 75.6746 12.6875C75.422 12.7112 75.1561 12.7355 74.8769 12.7603C74.611 12.7845 74.3787 12.8141 74.1799 12.849C73.994 12.8699 73.9015 12.8938 73.9026 12.9204C73.8638 12.9487 73.8024 13.078 73.7184 13.3083C73.6478 13.5381 73.5719 13.8014 73.4906 14.0983C73.4222 14.3814 73.3593 14.6375 73.302 14.8667C73.2274 15.3235 73.1727 15.7794 73.1381 16.2346C73.1167 16.6892 73.1262 17.0825 73.1665 17.4144C73.2068 17.7464 73.2897 17.9765 73.4151 18.1048C73.5399 18.2198 73.7741 18.2368 74.1178 18.156C74.4608 18.0618 74.7354 17.9238 74.9414 17.7418C75.173 17.5321 75.3621 17.4243 75.5086 17.4183C75.6685 17.4117 75.7581 17.4814 75.7775 17.6274C75.8096 17.7595 75.7442 17.9557 75.5815 18.2159C75.4314 18.4623 75.2404 18.6837 75.0082 18.88C74.7755 19.0631 74.5276 19.2 74.2645 19.2909C74.0141 19.3679 73.7743 19.3778 73.5451 19.3205ZM79.7314 18.3457C79.4538 18.4105 79.2748 18.4378 79.1943 18.4278C79.1266 18.4039 79.0167 18.3283 78.8647 18.2011C78.6472 18.1033 78.4618 17.9775 78.3087 17.8237C78.1689 17.6693 78.0622 17.5068 77.9885 17.3364C77.9275 17.1521 77.9012 16.9997 77.9096 16.8792C77.9304 16.4113 78.0232 15.9071 78.1878 15.3665C78.3524 14.826 78.5578 14.3038 78.804 13.7999C79.0502 13.2961 79.3193 12.8647 79.6115 12.5057C79.9165 12.1329 80.2133 11.8871 80.502 11.7685C80.7641 11.651 81.0156 11.6006 81.2564 11.6174C81.4973 11.6342 81.6757 11.7536 81.7916 11.9757C82.0073 12.3539 81.9708 12.6022 81.6821 12.7209C81.6421 12.7225 81.5963 12.7444 81.5447 12.7866C81.4925 12.8154 81.4675 12.8565 81.4697 12.9097C81.5241 12.9342 81.6709 12.9348 81.9101 12.9117C82.1488 12.8752 82.387 12.8254 82.6246 12.7622C82.875 12.6852 83.0388 12.6117 83.116 12.5419C83.1943 12.4986 83.2534 12.4762 83.2933 12.4745C83.3333 12.4729 83.4338 12.4821 83.5947 12.5022C83.8239 12.5595 83.9405 12.6348 83.9443 12.728C83.9465 12.7813 83.9687 12.8338 84.0108 12.8854C84.0524 12.9237 84.0999 12.9418 84.1532 12.9396C84.247 12.9491 84.2361 13.0096 84.1206 13.1211C84.0184 13.2321 83.8379 13.3863 83.5791 13.5837C83.3326 13.754 83.1771 13.8671 83.1127 13.9232C83.061 13.9653 83.0582 14.0588 83.1042 14.2037C83.2212 14.4525 83.2399 14.7453 83.1603 15.0822C83.0807 15.4191 82.9281 15.7656 82.7026 16.1218C82.477 16.4781 82.1973 16.8165 81.8636 17.1371C81.5425 17.4439 81.1932 17.7118 80.8157 17.9408C80.4509 18.156 80.0894 18.2909 79.7314 18.3457ZM79.3555 17.4804C79.4088 17.4782 79.501 17.4477 79.632 17.389C79.7625 17.3169 79.8669 17.2592 79.9452 17.216C79.9963 17.1605 80.0604 17.0978 80.1376 17.0279C80.2276 16.9441 80.2989 16.8945 80.3517 16.879C80.405 16.8768 80.4708 16.8541 80.549 16.8108C80.6268 16.7543 80.7359 16.6497 80.8764 16.4971C81.0164 16.3312 81.2 16.0902 81.4272 15.7739C81.6816 15.4699 81.8772 15.1949 82.0139 14.9491C82.15 14.69 82.1804 14.4552 82.105 14.2448C82.0895 14.1921 82.0482 14.1604 81.981 14.1498C81.9272 14.1387 81.8525 14.1084 81.7571 14.0589C81.6239 14.0644 81.4959 14.0363 81.3733 13.9746C81.2634 13.899 81.1328 13.8043 80.9813 13.6905L80.6452 13.3039L80.3194 13.6576C80.115 13.8795 79.9017 14.2085 79.6794 14.6447C79.4699 15.067 79.2942 15.5012 79.1524 15.9474C79.0101 16.3803 78.9308 16.7239 78.9145 16.9781C78.9094 17.1785 78.9482 17.3103 79.0309 17.3736C79.1135 17.437 79.2218 17.4725 79.3555 17.4804Z" fill="white"/>
<path d="M115.421 51.9879C115.203 52.1574 114.889 52.1182 114.719 51.9002L111.956 48.3482C111.787 48.1302 111.826 47.8161 112.044 47.6465C112.262 47.477 112.576 47.5163 112.746 47.7342L115.201 50.8916L118.359 48.4357C118.577 48.2662 118.891 48.3054 119.06 48.5234C119.23 48.7414 119.191 49.0555 118.973 49.2251L115.421 51.9879ZM86 15C94.9581 15 102.841 20.3712 108.227 27.5876C113.612 34.8014 116.573 43.9512 115.61 51.6552L114.618 51.5312C115.541 44.1421 112.695 35.2452 107.426 28.1857C102.159 21.1288 94.5418 16 86 16L86 15Z" fill="#A5D239"/>
</svg>
