<svg width="141" height="63" viewBox="0 0 141 63" fill="none" xmlns="http://www.w3.org/2000/svg">
<path d="M59.8884 23.4235C59.8406 23.5589 59.7437 23.6363 59.5977 23.6556C59.465 23.6744 59.2819 23.6019 59.0483 23.438C58.8819 23.2847 58.7701 23.1625 58.713 23.0714C58.6697 22.9932 58.6903 22.8455 58.7748 22.6285C58.8599 22.4249 59.005 22.0586 59.2101 21.5297C59.2502 21.2078 59.3304 20.8843 59.4504 20.5591C59.57 20.2205 59.6603 19.9833 59.7215 19.8473C59.7671 19.6586 59.8611 19.3478 60.0034 18.915C60.1585 18.4682 60.3317 17.974 60.523 17.4324C60.7276 16.8902 60.9202 16.3819 61.1009 15.9074C61.281 15.4196 61.4128 15.0539 61.4962 14.8102C61.7008 14.268 61.9109 13.6989 62.1266 13.1029C62.3423 12.5069 62.6383 11.7541 63.0146 10.8445C63.0625 10.7091 63.0834 10.5682 63.0773 10.4216C63.0846 10.2745 62.9751 10.2056 62.7486 10.2149C62.6093 10.0739 62.53 9.93034 62.5107 9.78434C62.4908 9.62502 62.5528 9.50905 62.6966 9.43642L63.7185 8.97408C64.3386 8.80181 64.9764 8.73557 65.6319 8.77536C66.3002 8.80128 66.9337 8.9554 67.5325 9.23773C68.1873 9.58447 68.6558 9.94554 68.9381 10.3209C69.2199 10.683 69.3687 11.0572 69.3846 11.4436C69.4138 11.8293 69.3628 12.2118 69.2316 12.5908C69.1365 12.8749 68.9426 13.1898 68.6499 13.5355C68.3705 13.8806 68.0378 14.2279 67.6518 14.5773C67.2791 14.9263 66.8854 15.2494 66.4706 15.5466C66.0686 15.83 65.6907 16.0524 65.337 16.2137C65.0105 16.3873 64.6699 16.5414 64.3151 16.6761C63.9604 16.8108 63.5923 16.946 63.2109 17.0818C62.9999 17.1438 62.7479 17.1808 62.4548 17.1929C62.1617 17.2049 61.9408 17.1873 61.7921 17.14L61.4909 18.0932C61.3774 18.5783 61.1736 19.3006 60.8794 20.2601C60.5985 21.2191 60.2682 22.2736 59.8884 23.4235ZM67.8307 23.3174C67.7258 23.3617 67.5998 23.3802 67.4527 23.3729C67.3189 23.3651 67.0947 23.2675 66.7801 23.0803C66.1797 22.758 65.5763 22.3624 64.9699 21.8936C64.3635 21.4248 63.6766 20.7858 62.9094 19.9766C62.616 19.655 62.3636 19.3585 62.1523 19.0869C61.9543 18.8148 61.7383 18.43 61.5044 17.9325L61.1803 16.8649L61.7075 16.543L62.4564 17.2328C62.6887 17.6904 62.9802 18.1254 63.3308 18.5381C63.6946 18.9501 64.03 19.3167 64.3367 19.6377C64.588 19.9076 64.9284 20.2339 65.3578 20.6166C65.7866 20.986 66.2416 21.3409 66.7227 21.6815C67.2037 22.022 67.6346 22.2779 68.0153 22.449C68.0979 22.5124 68.1287 22.6112 68.1075 22.7455C68.0863 22.8798 68.0446 23.0016 67.9824 23.111C67.934 23.233 67.8835 23.3018 67.8307 23.3174ZM62.3697 16.0955C62.675 16.0562 63.0317 15.9682 63.4397 15.8313C63.8472 15.6811 64.2539 15.5109 64.6598 15.3208C65.0385 15.1184 65.4358 14.8819 65.8517 14.6113C66.2804 14.3268 66.6746 14.017 67.0345 13.6819C67.3944 13.3469 67.6805 13.0015 67.8927 12.6458C68.1183 12.2896 68.2106 11.9388 68.1697 11.5936C68.1626 11.4204 68.0886 11.2433 67.9477 11.0622C67.8069 10.8812 67.6402 10.7212 67.4476 10.5823C67.2551 10.4435 67.0711 10.3509 66.8958 10.3048C66.3574 10.1934 65.9142 10.1249 65.5662 10.0992C65.2182 10.0734 64.9528 10.111 64.7702 10.2119C64.5869 10.2995 64.4675 10.4779 64.4118 10.7471C64.4135 10.7871 64.3657 10.9225 64.2684 11.1533C64.1711 11.3842 64.0494 11.6694 63.9032 12.0091C63.7703 12.3481 63.6383 12.7072 63.5071 13.0862C63.153 13.8881 62.8846 14.4996 62.7017 14.9208C62.5183 15.3287 62.4032 15.6137 62.3565 15.7757C62.3098 15.9378 62.3142 16.0444 62.3697 16.0955ZM73.0661 20.9805C72.7962 21.2318 72.4755 21.385 72.1042 21.4403C71.7461 21.4951 71.3909 21.4563 71.0385 21.324C70.6855 21.1784 70.3893 20.9503 70.1497 20.6399C69.9111 20.3561 69.7509 20.0291 69.669 19.6588C69.5865 19.2752 69.5593 18.7759 69.5874 18.1609C69.606 17.6397 69.7512 17.1133 70.023 16.5817C70.2941 16.0368 70.6277 15.5493 71.0238 15.1194C71.4331 14.6889 71.841 14.3852 72.2474 14.2084C72.4418 14.0669 72.6058 14.0001 72.7396 14.008C72.8861 14.002 73.1065 14.0063 73.4007 14.0209C73.7087 14.0482 73.9377 14.0989 74.0875 14.1728C74.2506 14.2462 74.3816 14.3475 74.4803 14.4769C74.6883 14.6685 74.8298 14.8629 74.9046 15.06C74.9789 15.2438 75.0198 15.4289 75.0275 15.6154C74.9863 15.9107 74.8012 16.2786 74.4723 16.7191C74.1563 17.1458 73.7306 17.5036 73.1953 17.7925C72.9061 17.8978 72.588 17.9509 72.2411 17.9518C71.8941 17.9527 71.6042 17.8779 71.3711 17.7273C71.1136 17.6311 70.9479 17.6579 70.874 17.8078C70.7995 17.9443 70.74 18.2803 70.6952 18.816C70.6628 19.3244 70.718 19.6958 70.8611 19.9301C71.0036 20.1511 71.189 20.2769 71.4171 20.3076C71.6857 20.3499 71.8939 20.3814 72.0415 20.402C72.2019 20.4088 72.3926 20.3409 72.6136 20.1984C72.8213 20.0564 72.9515 19.9777 73.0042 19.9621C73.0564 19.9333 73.0953 19.905 73.1209 19.8773C73.1592 19.8357 73.2422 19.7455 73.37 19.6068C73.4594 19.5097 73.5299 19.4401 73.5816 19.398C73.6327 19.3425 73.6915 19.3134 73.7581 19.3106C73.8247 19.3079 73.8861 19.3387 73.9421 19.4032C73.9976 19.4543 74.0525 19.492 74.1069 19.5165C74.2401 19.511 74.27 19.5899 74.1967 19.753C74.1366 19.9156 74.0047 20.1145 73.8008 20.3498C73.5964 20.5717 73.3515 20.7819 73.0661 20.9805ZM72.8721 16.7449C73.0159 16.6722 73.1652 16.5727 73.3202 16.4462C73.4746 16.3064 73.602 16.1611 73.7026 16.0101C73.8159 15.8453 73.8704 15.7097 73.866 15.6031C73.8584 15.4166 73.7655 15.2669 73.5874 15.1541C73.4087 15.028 73.1481 15.0187 72.8055 15.1262C72.6606 15.1722 72.4982 15.279 72.3183 15.4465C72.1378 15.6007 71.9648 15.7746 71.7993 15.9682C71.6471 16.1613 71.5207 16.3333 71.4201 16.4842C71.3329 16.6346 71.3032 16.7226 71.3309 16.7481C71.3736 16.8131 71.489 16.8617 71.6772 16.894C71.8648 16.913 72.0715 16.9112 72.2975 16.8886C72.5367 16.8654 72.7282 16.8175 72.8721 16.7449ZM83.1125 20.3475C82.846 20.3584 82.624 20.3142 82.4465 20.2147C82.2684 20.1019 82.1139 19.9148 81.983 19.6533C81.9221 19.469 81.867 19.2644 81.8177 19.0396C81.7812 18.8008 81.7589 18.5816 81.7506 18.3817C81.7419 18.1686 81.7561 18.0279 81.7933 17.9596C81.8444 17.9042 81.8606 17.8101 81.8418 17.6774C81.8358 17.5309 81.8295 17.3777 81.8229 17.2178C81.7987 16.9519 81.726 16.8081 81.605 16.7864C81.4968 16.7508 81.3386 16.7973 81.1304 16.926C80.8966 17.0824 80.5917 17.2951 80.2158 17.5641C79.8393 17.8197 79.4439 18.1029 79.0297 18.4135C78.6287 18.7235 78.2483 19.0461 77.8884 19.3811C77.6085 19.7129 77.4387 19.9668 77.3792 20.1427C77.3325 20.3047 77.2559 20.388 77.1493 20.3923C77.0449 20.45 76.9519 20.4605 76.8704 20.4238C76.8016 20.3733 76.6984 20.2974 76.5608 20.1963C76.4631 20.0936 76.3658 19.9975 76.2687 19.9081C76.171 19.8053 76.1078 19.7279 76.079 19.6757C76.0762 19.6091 76.0905 19.4684 76.1217 19.2536C76.1529 19.0388 76.1908 18.8237 76.2353 18.6084C76.2931 18.3925 76.334 18.2507 76.3579 18.183C76.4245 18.1802 76.4751 18.1114 76.5096 17.9766C76.5574 17.8412 76.6313 17.6913 76.7313 17.5271C76.7514 17.3661 76.8093 17.1502 76.9049 16.8794C77.0133 16.5947 77.1097 16.3439 77.1942 16.1269C77.3676 15.7995 77.4832 15.5279 77.5411 15.312C77.6122 15.0955 77.6546 14.8269 77.6681 14.5061C77.6526 14.4533 77.664 14.4062 77.7023 14.3646C77.7401 14.3096 77.7856 14.2811 77.8389 14.2789C77.9411 14.1679 78.0666 14.1361 78.2153 14.1833C78.3635 14.2173 78.5008 14.3117 78.6273 14.4667C78.8802 14.7765 78.9872 15.1058 78.9481 15.4543C78.9218 15.789 78.7284 16.2774 78.3678 16.9194C78.2833 17.1364 78.2168 17.3059 78.1685 17.428C78.1329 17.5362 78.1165 17.6236 78.1192 17.6902C78.1192 17.6902 78.1839 17.6409 78.3133 17.5422C78.456 17.4429 78.6115 17.3297 78.7797 17.2027C78.9608 17.0618 79.1032 16.9559 79.207 16.8849C79.2709 16.8156 79.4192 16.6894 79.6519 16.5063C79.8846 16.3233 80.1308 16.1464 80.3907 15.9755C80.6634 15.7909 80.8658 15.6825 80.9979 15.6503C81.1023 15.5927 81.2136 15.5414 81.3318 15.4965C81.4496 15.4383 81.5351 15.4081 81.5883 15.4059C81.6949 15.4015 81.8306 15.456 81.9954 15.5693C82.173 15.6688 82.3383 15.7954 82.4914 15.9493C82.644 16.0898 82.7358 16.2128 82.7668 16.3183C82.769 16.3716 82.7712 16.4249 82.7734 16.4782C82.7889 16.5309 82.8044 16.5836 82.8199 16.6364C82.8803 16.8074 82.9165 17.0394 82.9286 17.3325C82.9539 17.625 82.9582 17.8918 82.9414 18.1327C82.9246 18.3735 82.8837 18.5153 82.8188 18.558C82.8188 18.558 82.8196 18.578 82.8212 18.618C82.8357 18.6441 82.8695 18.656 82.9228 18.6539C82.925 18.7071 82.9264 18.7405 82.9269 18.7538C82.8603 18.7565 82.8361 18.8176 82.8544 18.9369C82.8721 19.0429 82.917 19.1612 82.989 19.2917C83.0744 19.4216 83.1588 19.5249 83.242 19.6016C83.4084 19.7549 83.4813 19.9053 83.4607 20.053C83.4395 20.1873 83.3235 20.2855 83.1125 20.3475ZM90.18 20.7777C90.1267 20.7799 90.0465 20.7765 89.9394 20.7676C89.845 20.7448 89.7627 20.6881 89.6922 20.5976C89.4825 20.366 89.3478 20.1714 89.2879 20.0137C89.228 19.856 89.2118 19.6232 89.2392 19.3151C89.2576 19.1142 89.2638 18.9405 89.2578 18.7939C89.2646 18.6335 89.2724 18.4997 89.2813 18.3926C89.2259 18.3415 89.1276 18.3856 88.9865 18.5248C88.8582 18.6502 88.678 18.8111 88.4459 19.0074C88.0143 19.5456 87.6244 19.962 87.2762 20.2565C86.9407 20.5372 86.6351 20.7299 86.3591 20.8346C86.0826 20.9261 85.8173 20.9636 85.5631 20.9474C85.3355 20.9301 85.1518 20.8442 85.012 20.6898C84.8717 20.5221 84.7761 20.3058 84.7252 20.041C84.6876 19.7757 84.6758 19.4893 84.6899 19.1818C84.7251 18.7399 84.8011 18.3165 84.9179 17.9113C85.048 17.5056 85.2628 17.0498 85.5623 16.5437C85.6979 16.2713 85.8804 16.0035 86.1098 15.7406C86.352 15.4637 86.6155 15.2194 86.9004 15.0075C87.198 14.7818 87.4848 14.6165 87.7607 14.5118C88.0622 14.3793 88.3726 14.2998 88.6917 14.2733C89.0104 14.2336 89.2979 14.2484 89.5543 14.318C89.7174 14.3913 89.8457 14.4261 89.9389 14.4223C90.0455 14.4179 90.1227 14.348 90.1705 14.2126C90.2327 14.1033 90.2928 13.9407 90.3506 13.7248C90.4079 13.4956 90.4799 13.2991 90.5666 13.1354L90.9529 11.8184C91.0846 11.4527 91.2289 11.0665 91.3857 10.6597C91.5424 10.2529 91.7289 9.75818 91.9452 9.17548C92.1542 8.73987 92.3305 8.48575 92.4744 8.41311C92.6176 8.32716 92.7863 8.37361 92.9805 8.55245C93.1342 8.71962 93.1957 8.91726 93.165 9.14538C93.1338 9.36017 93.0281 9.71148 92.848 10.1993C92.7608 10.3497 92.6866 10.4928 92.6254 10.6288C92.5638 10.7514 92.4784 10.9484 92.3695 11.2198C92.2133 11.6399 92.0687 12.0195 91.9359 12.3585C91.8025 12.6843 91.6643 13.0569 91.5214 13.4765C91.4769 13.6918 91.4137 13.9413 91.332 14.2249C91.2635 14.508 91.2073 14.7638 91.1633 14.9925C91.1321 15.2073 91.0937 15.409 91.0481 15.5977C91.0152 15.7726 90.9722 15.8611 90.9189 15.8632C90.8172 15.9875 90.7261 16.2048 90.6454 16.515C90.5642 16.8119 90.4969 17.1216 90.4434 17.4441C90.4032 17.766 90.3676 18.0344 90.3363 18.2492C90.3163 18.4101 90.3048 18.6174 90.3018 18.8711C90.2989 19.1248 90.3024 19.3715 90.3122 19.6113C90.3215 19.8378 90.3281 19.9977 90.3319 20.0909C90.344 20.384 90.345 20.5708 90.335 20.6513C90.3249 20.7317 90.2733 20.7739 90.18 20.7777ZM85.8719 19.6937C86.1516 19.6822 86.4398 19.5502 86.7364 19.2978C87.0462 19.0449 87.355 18.7653 87.6627 18.4591C87.8549 18.2644 88.0579 18.0092 88.2718 17.6935C88.499 17.3772 88.7129 17.0615 88.9134 16.7463C89.1273 16.4306 89.2962 16.1568 89.4202 15.9248C89.5435 15.6796 89.6041 15.5303 89.6019 15.477C89.5992 15.4104 89.5373 15.3662 89.4163 15.3445C89.2953 15.3228 89.1549 15.3152 88.995 15.3218C88.8479 15.3145 88.7283 15.3261 88.6362 15.3565C88.3458 15.4352 88.0582 15.5804 87.7733 15.7923C87.5018 16.0036 87.2077 16.316 86.891 16.7293C86.5622 17.1699 86.2938 17.6213 86.086 18.0835C85.8914 18.5452 85.7738 18.9304 85.7331 19.239C85.6924 19.5476 85.7387 19.6991 85.8719 19.6937ZM93.8912 20.2049C93.6903 20.1865 93.5113 20.0537 93.3544 19.8066C93.2102 19.5456 93.1204 19.3091 93.085 19.0971C93.094 18.9899 93.101 18.8362 93.1061 18.6358C93.1245 18.4349 93.1427 18.2273 93.1606 18.013C93.2035 17.7577 93.2642 17.4483 93.3426 17.0848C93.4206 16.7079 93.4985 16.3311 93.5764 15.9542C93.6677 15.5768 93.7478 15.2533 93.8168 14.9835C93.8858 14.7138 93.9325 14.5518 93.9569 14.4974C94.0192 14.3881 94.1247 14.357 94.2734 14.4043C94.4221 14.4516 94.5453 14.5266 94.6429 14.6293C94.7272 14.7326 94.7791 14.8573 94.7984 15.0033C94.8311 15.1487 94.8199 15.3627 94.7647 15.6452C94.7229 15.9271 94.6333 16.3445 94.4959 16.8973C94.3713 17.4362 94.2758 17.8738 94.2096 18.2101C94.1561 18.5326 94.1434 18.8734 94.1715 19.2326C94.1368 19.6877 94.1084 19.9691 94.0861 20.0768C94.0633 20.1711 93.9983 20.2138 93.8912 20.2049ZM95.8617 12.1372C95.81 12.1794 95.7575 12.2015 95.7043 12.2037C95.6637 12.192 95.5888 12.1551 95.4795 12.0928C95.3857 12.0834 95.2633 12.0283 95.1124 11.9278C94.9743 11.8134 94.8495 11.6984 94.7379 11.5829C94.6392 11.4535 94.5893 11.3755 94.5882 11.3488C94.5694 11.2161 94.5692 11.0493 94.5877 10.8484C94.6189 10.6336 94.6845 10.4441 94.7845 10.2799C94.884 10.1023 95.0333 10.0027 95.2326 9.9812C95.2859 9.97901 95.3328 9.98376 95.3733 9.99544C95.4138 10.0071 95.5356 10.0488 95.7388 10.1205C95.8535 10.316 95.9694 10.5381 96.0864 10.7868C96.2028 11.0223 96.2593 11.2601 96.2558 11.5005C96.2518 11.7275 96.1204 11.9397 95.8617 12.1372ZM97.5438 19.6945C97.3934 19.6073 97.2553 19.4929 97.1293 19.3512C97.0029 19.1963 96.9347 18.9989 96.9249 18.7591C96.9194 18.6259 96.9367 18.3983 96.9769 18.0764C97.017 17.7545 97.0755 17.3918 97.1524 16.9883C97.2292 16.5848 97.3071 16.208 97.3861 15.8577C97.5095 15.6125 97.6129 15.368 97.6963 15.1244C97.7797 14.8808 97.8203 14.7323 97.8181 14.679C97.8382 14.5181 97.8638 14.3302 97.895 14.1154C97.9396 13.9 97.9849 13.7047 98.0311 13.5293C98.0773 13.3539 98.1131 13.2524 98.1387 13.2246C98.2026 13.1553 98.2808 13.112 98.3736 13.0949C98.4657 13.0644 98.5595 13.0739 98.655 13.1234C98.7632 13.1589 98.8467 13.2423 98.9054 13.3733C99.0585 13.5271 99.1398 13.7173 99.1491 13.9438C99.1578 14.1569 99.0977 14.4797 98.9687 14.912C98.8597 15.1834 98.7527 15.5014 98.6475 15.866C98.5424 16.2306 98.4495 16.568 98.3689 16.8783C98.301 17.1746 98.2626 17.3764 98.2536 17.4835L97.8589 17.6198C98.0766 17.3974 98.2807 17.1688 98.4712 16.9341C98.6612 16.6861 98.8001 16.4936 98.8879 16.3565C99.1018 16.0408 99.2845 15.7798 99.4362 15.5734C99.6006 15.3531 99.81 15.0909 100.064 14.7869C100.318 14.4695 100.57 14.2724 100.821 14.1953C101.084 14.1045 101.289 14.056 101.435 14.05C101.731 14.0912 101.97 14.2349 102.154 14.4809C102.35 14.713 102.485 15.0678 102.558 15.5452C102.565 15.7317 102.554 15.9523 102.525 16.2071C102.509 16.4613 102.5 16.5884 102.5 16.5884C102.5 16.5884 102.601 16.4442 102.803 16.1556C103.018 15.8666 103.305 15.5478 103.664 15.1995C103.91 15.0025 104.152 14.8858 104.391 14.8493C104.629 14.7995 104.845 14.8707 105.04 15.0629C105.394 15.2352 105.632 15.5123 105.755 15.8942C105.877 16.2629 105.923 16.7414 105.894 17.3297C105.868 17.6778 105.872 17.9378 105.906 18.1099C105.939 18.2687 105.986 18.4269 106.045 18.5846C106.154 18.6335 106.179 18.7459 106.119 18.9218C106.059 19.0844 105.983 19.1676 105.889 19.1715C105.756 19.1769 105.602 19.1566 105.426 19.1104C105.264 19.0637 105.114 18.9831 104.976 18.8687C104.851 18.7404 104.783 18.563 104.774 18.3365L104.723 17.0976C104.711 16.8045 104.688 16.5653 104.654 16.3798C104.633 16.1939 104.595 16.082 104.54 16.0442C104.39 15.9703 104.18 16.0657 103.911 16.3303C103.642 16.5949 103.356 16.9469 103.054 17.3864C102.751 17.8258 102.47 18.2778 102.209 18.7422C101.972 19.1656 101.822 19.412 101.759 19.4813C101.707 19.5368 101.607 19.5209 101.456 19.4337C101.159 19.3525 100.968 19.2336 100.881 19.077C100.808 18.9065 100.793 18.7136 100.837 18.4983C100.895 18.2691 100.962 17.9594 101.039 17.5692C101.13 17.1785 101.215 16.8014 101.293 16.4378C101.371 16.061 101.42 15.7921 101.44 15.6311C101.383 15.5267 101.288 15.4973 101.156 15.5427C101.038 15.5743 100.913 15.6394 100.784 15.7382C100.629 15.8513 100.444 16.0591 100.229 16.3615C100.015 16.6639 99.7956 17.0131 99.5717 17.4093C99.4222 17.669 99.2661 17.929 99.1033 18.1892C98.94 18.4361 98.7889 18.6559 98.65 18.8484C98.5111 19.0409 98.3903 19.186 98.2875 19.2836C98.1131 19.5844 97.9931 19.7494 97.9276 19.7788C97.8621 19.8082 97.7341 19.7801 97.5438 19.6945ZM108.166 19.2581C108.113 19.2603 108.046 19.2497 107.965 19.2263C107.897 19.1891 107.862 19.1705 107.862 19.1705C107.86 19.1172 107.837 19.0514 107.794 18.9731C107.764 18.8943 107.748 18.8282 107.746 18.7749C107.651 18.7255 107.595 18.6744 107.58 18.6216C107.564 18.5556 107.579 18.4482 107.626 18.2994C107.701 18.1629 107.799 17.9454 107.92 17.6468C108.041 17.3349 108.167 17.0028 108.299 16.6504C108.431 16.2847 108.556 15.9259 108.675 15.5741C108.794 15.2222 108.896 14.9245 108.979 14.6808C109.062 14.4239 109.109 14.2685 109.12 14.2147C109.118 14.1614 109.135 14.0939 109.172 14.0124C109.208 13.9308 109.252 13.8623 109.303 13.8068C109.406 13.7092 109.519 13.6978 109.642 13.7729C109.765 13.8345 109.87 13.9503 109.957 14.1202C110.057 14.2763 110.111 14.4542 110.119 14.654C110.123 14.7473 110.066 14.9898 109.949 15.3816C109.831 15.7601 109.669 16.2138 109.464 16.7427C109.272 17.271 109.054 17.8071 108.81 18.3509C108.626 18.7454 108.509 18.9971 108.46 19.1059C108.411 19.2013 108.313 19.252 108.166 19.2581ZM110.793 11.5638C110.633 11.5703 110.457 11.5175 110.266 11.4053C110.087 11.2792 109.927 11.1256 109.786 10.9446C109.658 10.7496 109.59 10.5523 109.582 10.3524C109.579 10.2858 109.615 10.1909 109.69 10.0678C109.765 9.94458 109.84 9.82139 109.915 9.69821C109.99 9.57503 110.027 9.50011 110.026 9.47347C110.133 9.46909 110.213 9.47247 110.267 9.4836C110.333 9.48086 110.414 9.50422 110.51 9.55368C110.67 9.88071 110.861 10.1464 111.083 10.3508C111.318 10.5547 111.439 10.7299 111.445 10.8764C111.457 11.1695 111.438 11.3571 111.388 11.4392C111.337 11.508 111.139 11.5495 110.793 11.5638ZM115.042 19.2558C114.772 19.5071 114.452 19.6604 114.08 19.7157C113.722 19.7704 113.367 19.7316 113.015 19.5993C112.662 19.4537 112.366 19.2257 112.126 18.9152C111.887 18.6314 111.727 18.3044 111.645 17.9341C111.563 17.5505 111.536 17.0512 111.564 16.4362C111.582 15.915 111.728 15.3886 111.999 14.857C112.27 14.3121 112.604 13.8246 113 13.3947C113.409 12.9642 113.817 12.6605 114.224 12.4837C114.418 12.3423 114.582 12.2755 114.716 12.2833C114.862 12.2773 115.083 12.2816 115.377 12.2962C115.685 12.3236 115.914 12.3742 116.064 12.4481C116.227 12.5215 116.358 12.6229 116.457 12.7522C116.665 12.9439 116.806 13.1382 116.881 13.3353C116.955 13.5191 116.996 13.7042 117.004 13.8907C116.963 14.186 116.778 14.5539 116.449 14.9945C116.133 15.4211 115.707 15.7789 115.172 16.0678C114.882 16.1731 114.564 16.2262 114.217 16.2271C113.87 16.228 113.58 16.1532 113.347 16.0026C113.09 15.9065 112.924 15.9333 112.85 16.0831C112.776 16.2196 112.716 16.5557 112.672 17.0913C112.639 17.5997 112.694 17.9711 112.837 18.2054C112.98 18.4264 113.165 18.5523 113.393 18.5829C113.662 18.6253 113.87 18.6567 114.018 18.6774C114.178 18.6841 114.369 18.6162 114.59 18.4737C114.798 18.3317 114.928 18.253 114.981 18.2375C115.033 18.2086 115.072 18.1803 115.097 18.1526C115.135 18.111 115.219 18.0208 115.346 17.8822C115.436 17.7851 115.506 17.7154 115.558 17.6733C115.609 17.6178 115.668 17.5887 115.734 17.586C115.801 17.5832 115.862 17.6141 115.918 17.6785C115.974 17.7296 116.029 17.7674 116.083 17.7918C116.216 17.7864 116.246 17.8652 116.173 18.0283C116.113 18.1909 115.981 18.3899 115.777 18.6251C115.573 18.847 115.328 19.0572 115.042 19.2558ZM114.848 15.0202C114.992 14.9476 115.142 14.848 115.296 14.7215C115.451 14.5817 115.578 14.4364 115.679 14.2855C115.792 14.1207 115.847 13.985 115.842 13.8784C115.835 13.6919 115.742 13.5423 115.564 13.4295C115.385 13.3034 115.124 13.2941 114.782 13.4015C114.637 13.4475 114.475 13.5543 114.295 13.7218C114.114 13.876 113.941 14.0499 113.776 14.2436C113.623 14.4366 113.497 14.6086 113.396 14.7596C113.309 14.9099 113.279 14.9979 113.307 15.0235C113.35 15.0884 113.465 15.1371 113.653 15.1694C113.841 15.1883 114.048 15.1865 114.274 15.1639C114.513 15.1407 114.705 15.0928 114.848 15.0202ZM125.089 18.6228C124.822 18.6338 124.6 18.5895 124.423 18.4901C124.245 18.3773 124.09 18.1901 123.959 17.9286C123.898 17.7443 123.843 17.5397 123.794 17.3149C123.758 17.0762 123.735 16.8569 123.727 16.6571C123.718 16.4439 123.732 16.3032 123.77 16.235C123.821 16.1795 123.837 16.0854 123.818 15.9527C123.812 15.8062 123.806 15.653 123.799 15.4931C123.775 15.2272 123.702 15.0834 123.581 15.0617C123.473 15.0261 123.315 15.0727 123.107 15.2013C122.873 15.3577 122.568 15.5704 122.192 15.8394C121.816 16.0951 121.42 16.3782 121.006 16.6888C120.605 16.9989 120.225 17.3214 119.865 17.6565C119.585 17.9882 119.415 18.2421 119.356 18.418C119.309 18.5801 119.232 18.6633 119.126 18.6677C119.021 18.7253 118.928 18.7358 118.847 18.6991C118.778 18.6486 118.675 18.5728 118.537 18.4717C118.439 18.3689 118.342 18.2728 118.245 18.1834C118.147 18.0807 118.084 18.0032 118.055 17.951C118.053 17.8844 118.067 17.7437 118.098 17.5289C118.129 17.3141 118.167 17.099 118.212 16.8837C118.269 16.6678 118.31 16.526 118.334 16.4583C118.401 16.4556 118.451 16.3868 118.486 16.2519C118.534 16.1165 118.608 15.9667 118.708 15.8024C118.728 15.6415 118.786 15.4256 118.881 15.1547C118.99 14.87 119.086 14.6192 119.171 14.4022C119.344 14.0748 119.46 13.8032 119.517 13.5873C119.589 13.3709 119.631 13.1022 119.644 12.7814C119.629 12.7287 119.64 12.6815 119.679 12.6399C119.716 12.585 119.762 12.5564 119.815 12.5542C119.917 12.4432 120.043 12.4114 120.192 12.4587C120.34 12.4926 120.477 12.5871 120.604 12.742C120.857 13.0519 120.963 13.3811 120.924 13.7297C120.898 14.0644 120.705 14.5527 120.344 15.1947C120.26 15.4117 120.193 15.5812 120.145 15.7033C120.109 15.8115 120.093 15.899 120.095 15.9656C120.095 15.9656 120.16 15.9162 120.29 15.8175C120.432 15.7182 120.588 15.6051 120.756 15.478C120.937 15.3372 121.08 15.2312 121.183 15.1602C121.247 15.0909 121.396 14.9647 121.628 14.7817C121.861 14.5986 122.107 14.4217 122.367 14.2509C122.64 14.0662 122.842 13.9578 122.974 13.9257C123.079 13.868 123.19 13.8167 123.308 13.7718C123.426 13.7136 123.511 13.6834 123.565 13.6812C123.671 13.6769 123.807 13.7313 123.972 13.8447C124.149 13.9441 124.315 14.0708 124.468 14.2246C124.62 14.3651 124.712 14.4881 124.743 14.5936C124.745 14.6469 124.747 14.7002 124.75 14.7535C124.765 14.8062 124.781 14.859 124.796 14.9117C124.857 15.0827 124.893 15.3148 124.905 15.6078C124.93 15.9004 124.935 16.1671 124.918 16.408C124.901 16.6489 124.86 16.7907 124.795 16.8334C124.795 16.8334 124.796 16.8534 124.798 16.8933C124.812 16.9194 124.846 16.9314 124.899 16.9292C124.901 16.9825 124.903 17.0158 124.903 17.0291C124.837 17.0318 124.812 17.0929 124.831 17.2122C124.848 17.3183 124.893 17.4365 124.965 17.567C125.051 17.6969 125.135 17.8002 125.218 17.8769C125.385 18.0302 125.458 18.1806 125.437 18.3283C125.416 18.4626 125.3 18.5608 125.089 18.6228ZM129.545 19.3205C129.356 19.2748 129.201 19.2212 129.078 19.1595C128.955 19.0845 128.79 18.9645 128.583 18.7995C128.414 18.593 128.28 18.3983 128.179 18.2156C128.091 18.0324 128.029 17.8215 127.992 17.5827C127.955 17.3307 127.929 17.0115 127.913 16.6252C127.907 16.4653 127.923 16.2244 127.963 15.9025C128.017 15.5801 128.077 15.244 128.142 14.8943C128.221 14.5308 128.287 14.2078 128.343 13.9253C128.411 13.6422 128.45 13.4605 128.46 13.38C128.493 13.2052 128.422 13.108 128.248 13.0885C128.074 13.0689 127.88 13.0702 127.668 13.0923C127.468 13.1005 127.334 13.086 127.266 13.0488C127.212 13.0376 127.184 13.0187 127.183 12.9921C127.182 12.9521 127.181 12.9321 127.181 12.9321C127.179 12.8789 127.171 12.8458 127.157 12.8331C127.156 12.8064 127.134 12.7606 127.091 12.6956C127.062 12.6434 127.073 12.5696 127.122 12.4742C127.184 12.3649 127.288 12.2939 127.434 12.2612C127.552 12.2296 127.711 12.2031 127.911 12.1816C128.123 12.1462 128.334 12.0908 128.544 12.0154C128.754 11.9267 128.922 11.7997 129.049 11.6344C129.157 11.3363 129.283 11.0042 129.429 10.6379C129.574 10.2717 129.714 9.94565 129.849 9.65986C129.997 9.36021 130.096 9.17598 130.146 9.10718C130.368 8.97798 130.532 8.92451 130.64 8.94678C130.747 8.95572 130.872 9.06403 131.014 9.27171C131.084 9.36223 131.134 9.43358 131.163 9.48578C131.205 9.53742 131.215 9.61708 131.193 9.72475C131.17 9.83242 131.104 10.002 130.993 10.2334C130.896 10.4642 130.743 10.7975 130.534 11.2331C130.473 11.369 130.418 11.4914 130.369 11.6001C130.319 11.6956 130.295 11.7433 130.295 11.7433C130.349 11.7544 130.429 11.7578 130.535 11.7534C130.642 11.7491 130.775 11.7369 130.934 11.717C131.08 11.6844 131.265 11.6567 131.491 11.6341C131.717 11.5982 131.896 11.5908 132.031 11.6119C132.337 11.5993 132.566 11.65 132.718 11.7639C132.868 11.8644 132.956 12.0476 132.98 12.3135C133.013 12.459 132.983 12.547 132.891 12.5774C132.812 12.6074 132.593 12.6297 132.233 12.6445C132.113 12.6494 131.927 12.6637 131.675 12.6875C131.422 12.7112 131.156 12.7355 130.877 12.7603C130.611 12.7845 130.379 12.8141 130.18 12.849C129.994 12.8699 129.902 12.8938 129.903 12.9204C129.864 12.9487 129.802 13.078 129.718 13.3083C129.648 13.5381 129.572 13.8014 129.491 14.0983C129.422 14.3814 129.359 14.6375 129.302 14.8667C129.227 15.3235 129.173 15.7794 129.138 16.2346C129.117 16.6892 129.126 17.0825 129.167 17.4144C129.207 17.7464 129.29 17.9765 129.415 18.1048C129.54 18.2198 129.774 18.2368 130.118 18.156C130.461 18.0618 130.735 17.9238 130.941 17.7418C131.173 17.5321 131.362 17.4243 131.509 17.4183C131.669 17.4117 131.758 17.4814 131.777 17.6274C131.81 17.7595 131.744 17.9557 131.581 18.2159C131.431 18.4623 131.24 18.6837 131.008 18.88C130.776 19.0631 130.528 19.2 130.264 19.2909C130.014 19.3679 129.774 19.3778 129.545 19.3205ZM135.731 18.3457C135.454 18.4105 135.275 18.4378 135.194 18.4278C135.127 18.4039 135.017 18.3283 134.865 18.2011C134.647 18.1033 134.462 17.9775 134.309 17.8237C134.169 17.6693 134.062 17.5068 133.988 17.3364C133.928 17.1521 133.901 16.9997 133.91 16.8792C133.93 16.4113 134.023 15.9071 134.188 15.3665C134.352 14.826 134.558 14.3038 134.804 13.7999C135.05 13.2961 135.319 12.8647 135.612 12.5057C135.916 12.1329 136.213 11.8871 136.502 11.7685C136.764 11.651 137.016 11.6006 137.256 11.6174C137.497 11.6342 137.676 11.7536 137.792 11.9757C138.007 12.3539 137.971 12.6022 137.682 12.7209C137.642 12.7225 137.596 12.7444 137.545 12.7866C137.493 12.8154 137.468 12.8565 137.47 12.9097C137.524 12.9342 137.671 12.9348 137.91 12.9117C138.149 12.8752 138.387 12.8254 138.625 12.7622C138.875 12.6852 139.039 12.6117 139.116 12.5419C139.194 12.4986 139.253 12.4762 139.293 12.4745C139.333 12.4729 139.434 12.4821 139.595 12.5022C139.824 12.5595 139.94 12.6348 139.944 12.728C139.947 12.7813 139.969 12.8338 140.011 12.8854C140.052 12.9237 140.1 12.9418 140.153 12.9396C140.247 12.9491 140.236 13.0096 140.121 13.1211C140.018 13.2321 139.838 13.3863 139.579 13.5837C139.333 13.754 139.177 13.8671 139.113 13.9232C139.061 13.9653 139.058 14.0588 139.104 14.2037C139.221 14.4525 139.24 14.7453 139.16 15.0822C139.081 15.4191 138.928 15.7656 138.703 16.1218C138.477 16.4781 138.197 16.8165 137.864 17.1371C137.543 17.4439 137.193 17.7118 136.816 17.9408C136.451 18.156 136.089 18.2909 135.731 18.3457ZM135.356 17.4804C135.409 17.4782 135.501 17.4477 135.632 17.389C135.763 17.3169 135.867 17.2592 135.945 17.216C135.996 17.1605 136.06 17.0978 136.138 17.0279C136.228 16.9441 136.299 16.8945 136.352 16.879C136.405 16.8768 136.471 16.8541 136.549 16.8108C136.627 16.7543 136.736 16.6497 136.876 16.4971C137.016 16.3312 137.2 16.0902 137.427 15.7739C137.682 15.4699 137.877 15.1949 138.014 14.9491C138.15 14.69 138.18 14.4552 138.105 14.2448C138.09 14.1921 138.048 14.1604 137.981 14.1498C137.927 14.1387 137.853 14.1084 137.757 14.0589C137.624 14.0644 137.496 14.0363 137.373 13.9746C137.263 13.899 137.133 13.8043 136.981 13.6905L136.645 13.3039L136.319 13.6576C136.115 13.8795 135.902 14.2085 135.679 14.6447C135.47 15.067 135.294 15.5012 135.152 15.9474C135.01 16.3803 134.931 16.7239 134.915 16.9781C134.909 17.1785 134.948 17.3103 135.031 17.3736C135.114 17.437 135.222 17.4725 135.356 17.4804Z" fill="white"/>
<path d="M64.6737 56.7902C64.6259 56.9256 64.529 57.003 64.383 57.0224C64.2504 57.0411 64.0672 56.9686 63.8336 56.8047C63.6672 56.6514 63.5554 56.5292 63.4983 56.4382C63.4551 56.3599 63.4757 56.2123 63.5602 55.9953C63.6452 55.7916 63.7903 55.4253 63.9954 54.8965C64.0356 54.5746 64.1157 54.251 64.2358 53.9258C64.3553 53.5873 64.4457 53.35 64.5068 53.2141C64.5524 53.0254 64.6464 52.7146 64.7888 52.2817C64.9439 51.835 65.1171 51.3408 65.3083 50.7991C65.5129 50.2569 65.7055 49.7486 65.8862 49.2741C66.0663 48.7863 66.1981 48.4206 66.2815 48.177C66.4861 47.6348 66.6962 47.0657 66.9119 46.4696C67.1277 45.8736 67.4237 45.1208 67.8 44.2113C67.8478 44.0759 67.8687 43.9349 67.8627 43.7883C67.87 43.6413 67.7604 43.5724 67.5339 43.5817C67.3947 43.4406 67.3154 43.2971 67.296 43.1511C67.2761 42.9918 67.3381 42.8758 67.4819 42.8031L68.5038 42.3408C69.1239 42.1685 69.7617 42.1023 70.4172 42.1421C71.0855 42.168 71.7191 42.3221 72.3178 42.6045C72.9726 42.9512 73.4412 43.3123 73.7235 43.6877C74.0053 44.0497 74.1541 44.4239 74.1699 44.8103C74.1991 45.1961 74.1481 45.5785 74.0169 45.9575C73.9218 46.2417 73.7279 46.5566 73.4352 46.9022C73.1558 47.2473 72.8231 47.5946 72.4371 47.9441C72.0645 48.293 71.6707 48.6161 71.2559 48.9134C70.8539 49.1968 70.476 49.4191 70.1224 49.5805C69.7959 49.754 69.4552 49.9081 69.1005 50.0428C68.7457 50.1775 68.3776 50.3127 67.9962 50.4485C67.7852 50.5105 67.5332 50.5476 67.2401 50.5596C66.947 50.5717 66.7261 50.554 66.5774 50.5068L66.2763 51.4599C66.1628 51.945 65.9589 52.6673 65.6647 53.6269C65.3838 54.5859 65.0535 55.6403 64.6737 56.7902ZM72.6161 56.6841C72.5111 56.7284 72.3851 56.7469 72.238 56.7396C72.1043 56.7318 71.8801 56.6343 71.5655 56.447C70.9651 56.1247 70.3616 55.7292 69.7552 55.2603C69.1488 54.7915 68.462 54.1525 67.6948 53.3433C67.4013 53.0217 67.149 52.7252 66.9376 52.4536C66.7396 52.1815 66.5236 51.7967 66.2897 51.2993L65.9656 50.2317L66.4928 49.9097L67.2418 50.5996C67.4741 51.0571 67.7655 51.4922 68.1161 51.9048C68.48 52.3169 68.8153 52.6834 69.1221 53.0044C69.3734 53.2743 69.7137 53.6006 70.1431 53.9833C70.572 54.3527 71.0269 54.7077 71.508 55.0482C71.989 55.3887 72.4199 55.6446 72.8006 55.8158C72.8833 55.8791 72.914 55.9779 72.8928 56.1122C72.8717 56.2466 72.83 56.3684 72.7677 56.4777C72.7194 56.5998 72.6688 56.6686 72.6161 56.6841ZM67.155 49.4622C67.4603 49.4229 67.817 49.3349 68.2251 49.198C68.6326 49.0478 69.0393 48.8777 69.4451 48.6875C69.8238 48.4851 70.2211 48.2486 70.637 47.978C71.0657 47.6935 71.46 47.3837 71.8199 47.0486C72.1797 46.7136 72.4658 46.3682 72.678 46.0125C72.9036 45.6563 72.996 45.3056 72.9551 44.9603C72.948 44.7871 72.874 44.61 72.7331 44.4289C72.5922 44.2479 72.4255 44.088 72.233 43.9491C72.0404 43.8102 71.8565 43.7177 71.6811 43.6715C71.1427 43.5602 70.6996 43.4916 70.3515 43.4659C70.0035 43.4402 69.7382 43.4778 69.5555 43.5787C69.3723 43.6663 69.2528 43.8447 69.1972 44.1138C69.1988 44.1538 69.151 44.2892 69.0537 44.5201C68.9564 44.7509 68.8347 45.0362 68.6885 45.3758C68.5557 45.7149 68.4236 46.0739 68.2924 46.453C67.9384 47.2548 67.6699 47.8664 67.4871 48.2876C67.3037 48.6954 67.1886 48.9804 67.1419 49.1425C67.0951 49.3045 67.0995 49.4111 67.155 49.4622ZM74.7518 54.5346C74.6409 54.4324 74.5555 54.3025 74.4956 54.1448C74.4491 53.9866 74.4292 53.8272 74.4359 53.6668C74.4427 53.5064 74.4705 53.3718 74.5194 53.2631C74.5151 53.1565 74.5251 53.076 74.5495 53.0216C74.5868 52.9534 74.5976 52.8929 74.5821 52.8401C74.5666 52.7874 74.5761 52.6936 74.6106 52.5587C74.6451 52.4239 74.6799 52.2957 74.7149 52.1741C74.7994 51.9571 74.8889 51.6999 74.9834 51.4024C75.0774 51.0917 75.165 50.7878 75.2462 50.4909C75.3275 50.194 75.397 49.9376 75.4548 49.7217C75.5127 49.5058 75.5472 49.3709 75.5583 49.3171C75.5517 49.1572 75.6548 49.0662 75.8674 49.0442C76.0251 48.9843 76.1449 48.9794 76.2271 49.0294C76.3086 49.0661 76.4204 49.1883 76.5624 49.3959C76.6734 49.4981 76.7199 49.6564 76.702 49.8706C76.6841 50.0849 76.6085 50.3548 76.4751 50.6806C76.4262 50.7894 76.3658 50.9453 76.2941 51.1484C76.2357 51.351 76.1965 51.5328 76.1764 51.6937C76.1275 51.8025 76.0672 51.9584 75.9955 52.1615C75.9365 52.3508 75.884 52.5331 75.8378 52.7085C75.8139 52.7762 75.7913 52.8772 75.7702 53.0115C75.7484 53.1325 75.7206 53.2671 75.6867 53.4153C75.6522 53.5501 75.6038 53.6722 75.5416 53.7815C75.4441 54.3327 75.344 54.6571 75.2413 54.7547C75.1519 54.8518 74.9887 54.7784 74.7518 54.5346ZM76.3568 46.3418C76.2875 46.2779 76.2237 46.1871 76.1655 46.0694C76.1067 45.9384 76.0685 45.8199 76.0508 45.7138C76.0326 45.5945 76.0434 45.534 76.0834 45.5323C76.1894 45.5146 76.3113 45.3962 76.4491 45.177C76.5869 44.9579 76.6392 44.7689 76.606 44.6101C76.6038 44.5568 76.6218 44.5094 76.6602 44.4678C76.6979 44.4128 76.7432 44.3776 76.7959 44.3621C76.9514 44.249 77.1041 44.2293 77.2539 44.3033C77.4165 44.3633 77.5688 44.4972 77.7108 44.7048C77.8411 44.953 77.8832 45.1648 77.837 45.3402C77.7903 45.5022 77.653 45.7347 77.4253 46.0377C77.2364 46.3123 77.0559 46.4665 76.8838 46.5003C76.725 46.5335 76.5494 46.4807 76.3568 46.3418ZM80.2065 55.0111C79.6203 55.0352 79.1317 54.835 78.7406 54.4107C78.3489 53.9731 78.1461 53.421 78.1321 52.7543C78.139 52.2736 78.2112 51.7569 78.3486 51.2041C78.4988 50.6375 78.7034 50.0953 78.9623 49.5776C79.2208 49.0465 79.5086 48.581 79.8257 48.1809C80.1429 47.7809 80.4781 47.4936 80.8312 47.3189C80.9617 47.2469 81.0994 47.1878 81.2443 47.1418C81.4025 47.0953 81.5615 47.0687 81.7214 47.0622C81.868 47.0562 82.0223 47.0765 82.1843 47.1232C82.3458 47.1566 82.481 47.1978 82.5897 47.2467C82.82 47.3306 82.9979 47.4368 83.1232 47.5651C83.2486 47.6933 83.3637 47.8955 83.4684 48.1714C83.5188 48.4229 83.5462 48.6019 83.5505 48.7085C83.5549 48.8151 83.5282 48.9763 83.4703 49.1922C83.3302 49.6783 83.1406 50.0998 82.9018 50.4566C82.6629 50.8134 82.3352 51.1204 81.9187 51.3777C81.8149 51.4487 81.6905 51.5072 81.5456 51.5532C81.4135 51.5853 81.2742 51.6044 81.1276 51.6104C80.8612 51.6213 80.5995 51.5854 80.3425 51.5025C80.0984 51.4058 79.8989 51.2605 79.7441 51.0667L79.5977 50.9126L79.5443 51.0749C79.4259 51.4401 79.333 51.7775 79.2656 52.0872C79.2116 52.3964 79.1898 52.6775 79.2002 52.9306C79.2068 53.0905 79.2264 53.2431 79.2591 53.3886C79.305 53.5335 79.3635 53.6579 79.4345 53.7617C79.4911 53.8394 79.5801 53.8958 79.7017 53.9309C79.836 53.9521 79.9764 53.9596 80.123 53.9536C80.2162 53.9498 80.3095 53.9459 80.4027 53.9421C80.5088 53.9244 80.6076 53.8937 80.6992 53.8499C80.9224 53.7606 81.0987 53.6666 81.2281 53.5679C81.3708 53.4686 81.5132 53.3627 81.6554 53.2501L81.7337 53.2069L81.7137 53.2077C81.8703 53.1212 82.0069 53.0355 82.1235 52.9506C82.2534 52.8652 82.3184 52.8225 82.3184 52.8225C82.3717 52.8203 82.4236 52.7848 82.4742 52.716C82.5785 52.6584 82.7126 52.6729 82.8763 52.7596C83.0533 52.8457 83.1448 52.962 83.1508 53.1086C83.1403 53.1758 83.0847 53.2848 82.9841 53.4357C82.883 53.5733 82.7683 53.7048 82.64 53.8302C82.5251 53.955 82.4279 54.0257 82.3485 54.0423C82.3357 54.0562 82.2902 54.0847 82.2119 54.128C82.1331 54.1579 82.0809 54.1868 82.0553 54.2145L82.0753 54.2137C81.962 54.3785 81.8454 54.4633 81.7255 54.4683L81.5656 54.4748C81.5161 54.5703 81.3473 54.684 81.0592 54.8159C80.7705 54.9345 80.4862 54.9996 80.2065 55.0111ZM80.9251 50.5778C81.1649 50.568 81.3686 50.4929 81.5363 50.3525C81.7168 50.1983 81.8701 50.0319 81.9962 49.8532C82.2479 49.4826 82.3869 49.1299 82.4131 48.7952C82.4522 48.4467 82.4024 48.2085 82.2637 48.0808C82.1821 48.0441 82.108 48.0271 82.0414 48.0299C81.9876 48.0187 81.8752 48.0434 81.7042 48.1038C81.5854 48.1353 81.4229 48.2421 81.2169 48.424C81.0109 48.606 80.8056 48.8079 80.6012 49.0298C80.4102 49.2512 80.2644 49.4373 80.1638 49.5882L79.9213 50.0186C80.0262 49.9742 80.1253 49.9501 80.2185 49.9463C80.3246 49.9286 80.3848 49.9328 80.3992 49.9589C80.4041 50.0788 80.4288 50.1912 80.4731 50.2961C80.5302 50.3872 80.5932 50.458 80.662 50.5086C80.7441 50.5586 80.8318 50.5817 80.9251 50.5778ZM86.0063 54.7928C85.7488 54.6966 85.5032 54.5666 85.2697 54.4027C85.0355 54.2255 84.8827 54.0783 84.8111 53.9612C84.8062 53.8413 84.8229 53.7605 84.8612 53.7189C84.899 53.664 85.0114 53.6393 85.1985 53.645C85.3983 53.6368 85.7191 53.6503 86.161 53.6855C86.3208 53.6789 86.5201 53.6574 86.7588 53.6209C86.9975 53.5844 87.2157 53.5354 87.4133 53.4739C87.6243 53.4119 87.7415 53.3403 87.7648 53.2593C87.8314 53.2566 87.8439 53.236 87.8023 53.1977C87.7602 53.1461 87.7114 53.0947 87.6559 53.0436C87.6026 53.0458 87.5418 53.0283 87.4736 52.991C87.4048 52.9405 87.3437 52.9163 87.2904 52.9185C87.2877 52.8519 87.2181 52.7813 87.0816 52.7069C86.9578 52.6186 86.8283 52.5505 86.6929 52.5027C86.3899 52.2749 86.128 52.0722 85.9072 51.8944C85.6859 51.7033 85.6005 51.5734 85.651 51.5046C85.6488 51.4513 85.6477 51.4247 85.6477 51.4247C85.6472 51.4113 85.6469 51.4047 85.6469 51.4047C85.5536 51.4085 85.4416 51.2797 85.3107 51.0182C85.1932 50.7561 85.1301 50.5185 85.1213 50.3053C85.1148 50.1455 85.1532 49.9437 85.2366 49.7001C85.3194 49.4431 85.4353 49.1782 85.5842 48.9052C85.7332 48.6321 85.8906 48.4055 86.0567 48.2252C86.2872 47.9889 86.5771 47.7367 86.9264 47.4688C87.2752 47.1876 87.6186 46.94 87.9568 46.7259C88.3077 46.498 88.6017 46.3458 88.8388 46.2693C89.0747 46.1662 89.2926 46.1106 89.4925 46.1023C89.7056 46.0936 89.894 46.1326 90.0577 46.2192C90.1937 46.2804 90.3177 46.3754 90.4298 46.5042C90.5546 46.6192 90.6597 46.7416 90.7451 46.8716C90.8433 46.9876 90.9076 47.0918 90.9381 47.1839C90.9447 47.3438 90.9387 47.5242 90.9203 47.7251C90.9013 47.9127 90.8682 48.0809 90.8209 48.2296C90.787 48.3778 90.7234 48.4538 90.6301 48.4576C90.6301 48.4576 90.6104 48.4651 90.571 48.4801C90.5443 48.4812 90.5324 48.515 90.5351 48.5816C90.5406 48.7149 90.447 48.8722 90.2543 49.0536C90.0083 49.2372 89.7928 49.3528 89.608 49.4004C89.4225 49.4347 89.3063 49.3661 89.2592 49.1945C89.2171 49.1429 89.1885 49.0974 89.1735 49.0579C89.1586 49.0185 89.1244 48.9999 89.0712 49.0021C89.0712 49.0021 89.0503 48.9829 89.0087 48.9446C88.9671 48.9063 88.9444 48.8405 88.9406 48.7472C88.9384 48.6939 88.9565 48.6465 88.9948 48.6049C89.0326 48.55 89.0514 48.5225 89.0514 48.5225C89.1181 48.5198 89.2016 48.4429 89.3022 48.292C89.4022 48.1278 89.4886 47.9574 89.5614 47.7809C89.647 47.5906 89.6885 47.4621 89.6857 47.3955C89.6824 47.3156 89.6672 47.2695 89.64 47.2573C89.6261 47.2445 89.5659 47.2403 89.4593 47.2447C89.2761 47.3323 89.054 47.4481 88.793 47.5923C88.5321 47.7365 88.2844 47.8801 88.0501 48.0232C87.8286 48.1524 87.6667 48.2725 87.5645 48.3834C87.515 48.4789 87.4842 48.5402 87.472 48.5674C87.4592 48.5812 87.4262 48.5893 87.3729 48.5915C87.3707 48.5382 87.3251 48.5667 87.2363 48.6771C87.1602 48.7737 87.0591 48.9113 86.933 49.0899C86.8202 49.2681 86.7074 49.4462 86.5946 49.6243C86.4946 49.7885 86.4196 49.9117 86.3696 49.9938C86.344 50.0216 86.314 50.1029 86.2795 50.2377C86.2578 50.3587 86.2491 50.4725 86.2535 50.5791C86.2068 50.7411 86.2181 50.8541 86.2875 50.918C86.3563 50.9685 86.5077 51.0824 86.7419 51.2596C87.2224 51.5868 87.6005 51.8582 87.8762 52.0737C88.152 52.2893 88.3595 52.4676 88.4987 52.6086C88.638 52.7497 88.7234 52.8796 88.7549 52.9984C89.0112 53.3882 89.097 53.6916 89.0125 53.9086C88.928 54.1256 88.7092 54.3214 88.3561 54.4961C88.2256 54.5682 88.008 54.6305 87.7032 54.683C87.3984 54.7356 87.0862 54.7684 86.7665 54.7816C86.4473 54.808 86.1939 54.8118 86.0063 54.7928ZM93.4676 58.1693C93.3216 58.1887 93.0938 58.1647 92.7841 58.0973C92.4877 58.0294 92.2649 57.9652 92.1156 57.9046C91.9369 57.7785 91.7564 57.6058 91.5739 57.3864C91.3914 57.1671 91.2419 56.9397 91.1255 56.7042C91.0229 56.4816 90.9758 56.3101 90.9842 56.1896C90.9932 56.0825 91.0923 56.0584 91.2815 56.1173C91.4841 56.1757 91.6209 56.2569 91.6919 56.3607C91.8178 56.5023 91.9634 56.6365 92.1287 56.7631C92.2941 56.8898 92.4581 56.9831 92.6207 57.0432C92.7838 57.1165 92.9117 57.1446 93.0044 57.1275C93.3353 57.0605 93.6016 56.8827 93.8032 56.5942C94.0187 56.3185 94.2046 55.9706 94.3608 55.5505C94.4554 55.253 94.5252 55.0032 94.5703 54.8012C94.6292 54.612 94.6804 54.3964 94.7238 54.1544C94.7806 53.9118 94.8468 53.5755 94.9226 53.1454C95.0228 52.6608 95.0888 52.3178 95.1205 52.1164C95.165 51.901 95.1859 51.7601 95.1832 51.6934C95.1805 51.6268 95.1586 51.581 95.1175 51.556C95.1175 51.556 95.0328 51.6062 94.8635 51.7066C94.6941 51.807 94.505 51.9148 94.2963 52.0301C94.1008 52.1449 93.9512 52.2378 93.8473 52.3088C93.4792 52.444 93.1159 52.5324 92.7573 52.5738C92.3987 52.6152 92.1181 52.6067 91.9155 52.5483C91.8206 52.5122 91.7169 52.423 91.6043 52.2809C91.505 52.1382 91.4185 51.9816 91.3448 51.8111C91.2838 51.6268 91.2573 51.4678 91.2651 51.334C91.2741 51.2269 91.3275 51.0645 91.4253 50.847C91.5231 50.6295 91.6337 50.3981 91.7571 50.1528C91.8938 49.907 92.0121 49.7019 92.1121 49.5377C92.2249 49.3596 92.2946 49.27 92.3213 49.2689C92.3745 49.2667 92.4004 49.2456 92.3987 49.2057C92.4104 49.1651 92.4151 49.1182 92.413 49.065C92.4241 49.0111 92.5194 48.8938 92.6987 48.7129C92.8909 48.5182 93.1481 48.2808 93.4702 48.0007C93.9189 47.5552 94.3251 47.2116 94.6889 46.9698C95.0526 46.728 95.3938 46.5872 95.7124 46.5474C95.8062 46.5569 95.8931 46.56 95.973 46.5567C96.0662 46.5529 96.1129 46.5509 96.1129 46.5509C96.1129 46.5509 96.1539 46.5759 96.2361 46.626C96.3309 46.6621 96.453 46.7104 96.6023 46.771C96.8054 46.8428 96.991 46.9753 97.1591 47.1685C97.3266 47.3485 97.4622 47.5631 97.5659 47.8124C97.6823 48.0478 97.7521 48.2851 97.7753 48.5244C97.774 48.818 97.7192 49.1072 97.6108 49.3918C97.5157 49.676 97.4146 49.8136 97.3074 49.8046C97.2003 49.7957 97.069 49.8478 96.9135 49.961C96.7714 50.0735 96.7014 50.1565 96.7036 50.2098C96.7058 50.2631 96.6885 50.3305 96.6518 50.4121C96.6285 50.4931 96.5471 50.6232 96.4077 50.8024C96.3971 50.8696 96.3645 51.0511 96.3099 51.3469C96.2681 51.6289 96.2147 51.9513 96.1495 52.3143C96.0843 52.6773 96.0245 53.0067 95.9699 53.3025C95.9281 53.5845 95.9022 53.7657 95.8922 53.8462C95.881 53.9 95.8527 54.0213 95.807 54.21C95.7742 54.3848 95.7224 54.5871 95.6518 54.8168C95.5945 55.0461 95.53 55.2622 95.4583 55.4653C95.4209 55.8539 95.3594 56.1433 95.2738 56.3336C95.202 56.5368 95.0776 56.7554 94.9004 56.9895C94.7142 57.3308 94.4851 57.6004 94.213 57.7984C93.9414 58.0097 93.693 58.1334 93.4676 58.1693ZM92.3724 51.4887C92.4045 51.6208 92.5863 51.66 92.9177 51.6064C93.2486 51.5394 93.577 51.4125 93.9029 51.2256C94.19 51.067 94.4515 50.9362 94.6875 50.8331C94.9234 50.73 95.0845 50.5899 95.1706 50.4129C95.2451 50.2764 95.3062 50.1404 95.354 50.005C95.4018 49.8696 95.4605 49.6737 95.53 49.4173C95.5412 49.3635 95.572 49.3021 95.6226 49.2333C95.6859 49.1507 95.7439 49.1016 95.7967 49.0861C95.8494 49.0706 95.9027 49.0684 95.9565 49.0795C96.0237 49.0901 96.1047 49.1134 96.1996 49.1496C96.2651 49.1202 96.309 49.0517 96.3313 48.944C96.3669 48.8358 96.3686 48.7156 96.3365 48.5835C96.3193 48.4908 96.2475 48.3669 96.1211 48.212C95.9946 48.0571 95.8362 47.9368 95.6459 47.8512C95.4416 47.7528 95.2112 47.829 94.9547 48.0798C94.6981 48.3305 94.3837 48.637 94.0116 48.9993C93.7167 49.2916 93.4356 49.5968 93.1685 49.9147C92.9013 50.2326 92.6866 50.5283 92.5244 50.8018C92.3754 51.0749 92.3248 51.3038 92.3724 51.4887ZM100.711 53.9884C100.539 54.0089 100.398 54.0013 100.29 53.9657C100.181 53.9168 100.045 53.849 99.8815 53.7623C99.5791 53.5479 99.35 53.3304 99.1941 53.11C99.051 52.8757 98.9815 52.645 98.9855 52.418C99.0072 52.297 99.0029 52.1904 98.9724 52.0982C98.9552 52.0055 98.9467 51.9592 98.9467 51.9592C98.864 51.8958 98.8357 51.857 98.8618 51.8426C98.8873 51.8148 98.9057 51.774 98.9168 51.7202C99.0223 51.6892 99.0326 51.6154 98.9478 51.4987C98.9034 51.3938 98.9135 51.1532 98.9781 50.7769C99.0555 50.3867 99.1606 50.0221 99.2935 49.683C99.3541 49.5337 99.4394 49.3367 99.5495 49.092C99.6728 48.8467 99.8095 48.6009 99.9595 48.3546C100.109 48.0949 100.247 47.889 100.375 47.737C100.654 47.3919 100.904 47.1348 101.123 46.9656C101.356 46.7826 101.617 46.6317 101.906 46.5131C102.168 46.3956 102.358 46.3277 102.478 46.3095C102.597 46.2912 102.767 46.3643 102.987 46.5287C103.311 46.6088 103.556 46.7322 103.723 46.8988C103.903 47.0516 104.046 47.2992 104.154 47.6418C104.276 48.0237 104.328 48.482 104.31 49.0165C104.305 49.5372 104.106 50.2192 103.714 51.0627C103.482 51.5927 103.245 51.9961 103.003 52.2729C102.774 52.5492 102.493 52.841 102.158 53.1483C101.914 53.3719 101.688 53.548 101.479 53.6766C101.271 53.8053 101.015 53.9092 100.711 53.9884ZM102.212 51.5448C102.462 51.1341 102.654 50.7593 102.787 50.4202C102.932 50.0673 103.041 49.6291 103.113 49.1057C103.134 48.9581 103.133 48.778 103.111 48.5654C103.088 48.3394 103.046 48.1343 102.985 47.95C102.938 47.7651 102.874 47.6677 102.793 47.6576C102.617 47.5981 102.424 47.6061 102.214 47.6814C102.003 47.7435 101.776 47.9129 101.534 48.1898C101.319 48.4655 101.124 48.7738 100.952 49.1145C100.792 49.4546 100.647 49.8276 100.517 50.2332C100.387 50.6389 100.265 51.071 100.15 51.5294C100.038 52.0411 100.06 52.4272 100.218 52.6876C100.388 52.9475 100.651 53.0034 101.005 52.8554C101.359 52.6941 101.761 52.2572 102.212 51.5448Z" fill="white"/>
<path d="M53.4571 18.8542C53.6106 18.6247 53.549 18.3142 53.3195 18.1606L49.5794 15.6584C49.3498 15.5049 49.0393 15.5664 48.8858 15.796C48.7322 16.0255 48.7938 16.336 49.0233 16.4896L52.3479 18.7138L50.1237 22.0384C49.9702 22.2679 50.0317 22.5784 50.2613 22.732C50.4908 22.8855 50.8013 22.8239 50.9549 22.5944L53.4571 18.8542ZM1.01256 23.1604C13.0067 22.8592 40.2612 21.6205 53.1388 19.0667L52.9442 18.0858C40.165 20.6201 12.9974 21.8591 0.987451 22.1607L1.01256 23.1604Z" fill="#A5D239"/>
<path d="M53.5237 50.3066C53.6819 50.533 53.6266 50.8447 53.4003 51.0029L49.7118 53.5807C49.4855 53.7389 49.1738 53.6837 49.0156 53.4573C48.8574 53.231 48.9126 52.9192 49.139 52.7611L52.4176 50.4697L50.1262 47.191C49.968 46.9647 50.0233 46.6529 50.2496 46.4948C50.476 46.3366 50.7877 46.3918 50.9459 46.6182L53.5237 50.3066ZM1.00241 47.0686C13.0002 47.1257 40.2743 47.8095 53.2011 50.1007L53.0266 51.0854C40.1984 48.8117 13.0112 48.1258 0.997651 48.0686L1.00241 47.0686Z" fill="#A5D239"/>
</svg>
