<svg width="86" height="55" viewBox="0 0 86 55" fill="none" xmlns="http://www.w3.org/2000/svg">
<path d="M3.67373 49.7902C3.62591 49.9256 3.52901 50.003 3.38301 50.0224C3.25034 50.0411 3.06721 49.9686 2.83362 49.8047C2.66718 49.6514 2.55541 49.5292 2.49829 49.4382C2.45504 49.3599 2.47566 49.2123 2.56016 48.9953C2.6452 48.7916 2.79029 48.4253 2.99541 47.8965C3.03557 47.5746 3.11568 47.251 3.23577 46.9258C3.35531 46.5873 3.44564 46.35 3.50678 46.2141C3.5524 46.0254 3.64639 45.7146 3.78874 45.2817C3.94387 44.835 4.11706 44.3408 4.30832 43.7991C4.5129 43.2569 4.70552 42.7486 4.8862 42.2741C5.06632 41.7863 5.19809 41.4206 5.28149 41.177C5.48607 40.6348 5.69622 40.0657 5.91193 39.4696C6.12765 38.8736 6.42366 38.1208 6.79997 37.2113C6.84779 37.0759 6.86868 36.9349 6.86266 36.7883C6.86996 36.6413 6.76038 36.5724 6.5339 36.5817C6.39466 36.4406 6.31537 36.2971 6.29602 36.1511C6.27613 35.9918 6.33809 35.8758 6.4819 35.8031L7.50378 35.3408C8.1239 35.1685 8.76171 35.1023 9.41723 35.1421C10.0855 35.168 10.7191 35.3221 11.3178 35.6045C11.9726 35.9512 12.4412 36.3123 12.7235 36.6877C13.0052 37.0497 13.1541 37.4239 13.1699 37.8103C13.1991 38.1961 13.1481 38.5785 13.0169 38.9575C12.9218 39.2417 12.7279 39.5566 12.4352 39.9022C12.1558 40.2473 11.8231 40.5946 11.4371 40.9441C11.0645 41.293 10.6707 41.6161 10.2559 41.9134C9.85388 42.1968 9.47602 42.4191 9.12235 42.5805C8.79586 42.754 8.45523 42.9081 8.10046 43.0428C7.74569 43.1775 7.3776 43.3127 6.99619 43.4485C6.78522 43.5105 6.5332 43.5476 6.24011 43.5596C5.94703 43.5717 5.72612 43.554 5.57738 43.5068L5.27626 44.4599C5.16274 44.945 4.95889 45.6673 4.6647 46.6269C4.38383 47.5859 4.05351 48.6403 3.67373 49.7902ZM11.6161 49.6841C11.5111 49.7284 11.3851 49.7469 11.238 49.7396C11.1043 49.7318 10.8801 49.6343 10.5654 49.447C9.96505 49.1247 9.36163 48.7292 8.75521 48.2603C8.14878 47.7915 7.46197 47.1525 6.69477 46.3433C6.40132 46.0217 6.14894 45.7252 5.93761 45.4536C5.73961 45.1815 5.52363 44.7967 5.28967 44.2993L4.96557 43.2317L5.4928 42.9097L6.24175 43.5996C6.47407 44.0571 6.76551 44.4922 7.11607 44.9048C7.47996 45.3169 7.81529 45.6834 8.12206 46.0044C8.37336 46.2743 8.7137 46.6006 9.14311 46.9833C9.57197 47.3527 10.0269 47.7077 10.508 48.0482C10.989 48.3887 11.4199 48.6446 11.8006 48.8158C11.8832 48.8791 11.914 48.9779 11.8928 49.1122C11.8717 49.2466 11.83 49.3684 11.7677 49.4777C11.7194 49.5998 11.6688 49.6686 11.6161 49.6841ZM6.15499 42.4622C6.4603 42.4229 6.81699 42.3349 7.22505 42.198C7.63256 42.0478 8.03925 41.8777 8.44512 41.6875C8.8238 41.4851 9.22109 41.2486 9.63699 40.978C10.0657 40.6935 10.46 40.3837 10.8198 40.0486C11.1797 39.7136 11.4658 39.3682 11.678 39.0125C11.9036 38.6563 11.9959 38.3056 11.9551 37.9603C11.9479 37.7871 11.8739 37.61 11.7331 37.4289C11.5922 37.2479 11.4255 37.088 11.2329 36.9491C11.0404 36.8102 10.8565 36.7177 10.6811 36.6715C10.1427 36.5602 9.69954 36.4916 9.35152 36.4659C9.00351 36.4402 8.73816 36.4778 8.55548 36.5787C8.37226 36.6663 8.25281 36.8447 8.19715 37.1138C8.19879 37.1538 8.15098 37.2892 8.0537 37.5201C7.95643 37.7509 7.83471 38.0362 7.68853 38.3758C7.55567 38.7149 7.42363 39.0739 7.29241 39.453C6.93837 40.2548 6.66991 40.8664 6.48705 41.2876C6.30364 41.6954 6.18857 41.9804 6.14185 42.1425C6.09513 42.3045 6.09951 42.4111 6.15499 42.4622ZM13.7518 47.5346C13.6409 47.4324 13.5555 47.3025 13.4956 47.1448C13.4491 46.9866 13.4292 46.8272 13.4359 46.6668C13.4427 46.5064 13.4705 46.3718 13.5194 46.2631C13.515 46.1565 13.5251 46.076 13.5495 46.0216C13.5868 45.9534 13.5976 45.8929 13.5821 45.8401C13.5666 45.7874 13.5761 45.6936 13.6106 45.5587C13.6451 45.4239 13.6798 45.2957 13.7149 45.1741C13.7994 44.9571 13.8889 44.6999 13.9834 44.4024C14.0774 44.0917 14.165 43.7878 14.2462 43.4909C14.3274 43.194 14.397 42.9376 14.4548 42.7217C14.5127 42.5058 14.5472 42.3709 14.5583 42.3171C14.5517 42.1572 14.6548 42.0662 14.8674 42.0442C15.025 41.9843 15.1449 41.9794 15.2271 42.0294C15.3086 42.0661 15.4204 42.1883 15.5624 42.3959C15.6733 42.4981 15.7199 42.6564 15.702 42.8706C15.6841 43.0849 15.6085 43.3548 15.4751 43.6806C15.4261 43.7894 15.3658 43.9453 15.2941 44.1484C15.2357 44.351 15.1965 44.5328 15.1764 44.6937C15.1275 44.8025 15.0672 44.9584 14.9954 45.1615C14.9365 45.3508 14.8839 45.5331 14.8378 45.7085C14.8139 45.7762 14.7913 45.8772 14.7701 46.0115C14.7484 46.1325 14.7206 46.2671 14.6867 46.4153C14.6522 46.5501 14.6038 46.6722 14.5416 46.7815C14.4441 47.3327 14.344 47.6571 14.2413 47.7547C14.1518 47.8518 13.9887 47.7784 13.7518 47.5346ZM15.3568 39.3418C15.2875 39.2779 15.2237 39.1871 15.1655 39.0694C15.1067 38.9384 15.0685 38.8199 15.0508 38.7138C15.0325 38.5945 15.0434 38.534 15.0834 38.5323C15.1894 38.5146 15.3113 38.3962 15.4491 38.177C15.5869 37.9579 15.6392 37.7689 15.606 37.6101C15.6038 37.5568 15.6218 37.5094 15.6602 37.4678C15.6979 37.4128 15.7432 37.3776 15.7959 37.3621C15.9514 37.249 16.1041 37.2293 16.2539 37.3033C16.4165 37.3633 16.5688 37.4972 16.7108 37.7048C16.8411 37.953 16.8831 38.1648 16.837 38.3402C16.7902 38.5022 16.653 38.7347 16.4253 39.0377C16.2364 39.3123 16.0559 39.4665 15.8838 39.5003C15.725 39.5335 15.5494 39.4807 15.3568 39.3418ZM19.2064 48.0111C18.6203 48.0352 18.1316 47.835 17.7406 47.4107C17.3489 46.9731 17.1461 46.421 17.132 45.7543C17.139 45.2736 17.2112 44.7569 17.3486 44.2041C17.4988 43.6375 17.7034 43.0953 17.9623 42.5776C18.2208 42.0465 18.5085 41.581 18.8257 41.1809C19.1429 40.7809 19.4781 40.4936 19.8312 40.3189C19.9617 40.2469 20.0994 40.1878 20.2443 40.1418C20.4025 40.0953 20.5615 40.0687 20.7214 40.0622C20.8679 40.0562 21.0222 40.0765 21.1843 40.1232C21.3458 40.1566 21.4809 40.1978 21.5897 40.2467C21.82 40.3306 21.9979 40.4368 22.1232 40.5651C22.2486 40.6933 22.3637 40.8955 22.4684 41.1714C22.5188 41.4229 22.5461 41.6019 22.5505 41.7085C22.5549 41.8151 22.5282 41.9763 22.4703 42.1922C22.3302 42.6783 22.1406 43.0998 21.9017 43.4566C21.6629 43.8134 21.3352 44.1204 20.9187 44.3777C20.8149 44.4487 20.6905 44.5072 20.5456 44.5532C20.4135 44.5853 20.2742 44.6044 20.1276 44.6104C19.8612 44.6213 19.5995 44.5854 19.3425 44.5025C19.0983 44.4058 18.8989 44.2605 18.7441 44.0667L18.5977 43.9126L18.5443 44.0749C18.4259 44.4401 18.333 44.7775 18.2656 45.0872C18.2116 45.3964 18.1898 45.6775 18.2002 45.9306C18.2068 46.0905 18.2264 46.2431 18.259 46.3886C18.305 46.5335 18.3635 46.6579 18.4345 46.7617C18.4911 46.8394 18.5801 46.8958 18.7017 46.9309C18.836 46.9521 18.9764 46.9596 19.123 46.9536C19.2162 46.9498 19.3095 46.9459 19.4027 46.9421C19.5088 46.9244 19.6076 46.8937 19.6992 46.8499C19.9224 46.7606 20.0987 46.6666 20.2281 46.5679C20.3708 46.4686 20.5132 46.3627 20.6554 46.2501L20.7337 46.2069L20.7137 46.2077C20.8703 46.1212 21.0069 46.0355 21.1235 45.9506C21.2534 45.8652 21.3184 45.8225 21.3184 45.8225C21.3717 45.8203 21.4236 45.7848 21.4741 45.716C21.5785 45.6584 21.7126 45.6729 21.8763 45.7596C22.0533 45.8457 22.1448 45.962 22.1508 46.1086C22.1402 46.1758 22.0847 46.2848 21.9841 46.4357C21.883 46.5733 21.7683 46.7048 21.64 46.8302C21.525 46.955 21.4279 47.0257 21.3485 47.0423C21.3357 47.0562 21.2902 47.0847 21.2119 47.128C21.133 47.1579 21.0808 47.1868 21.0553 47.2145L21.0753 47.2137C20.962 47.3785 20.8453 47.4633 20.7254 47.4683L20.5656 47.4748C20.5161 47.5703 20.3473 47.684 20.0591 47.8159C19.7704 47.9345 19.4862 47.9996 19.2064 48.0111ZM19.9251 43.5778C20.1648 43.568 20.3686 43.4929 20.5363 43.3525C20.7168 43.1983 20.8701 43.0319 20.9962 42.8532C21.2479 42.4826 21.3868 42.1299 21.4131 41.7952C21.4522 41.4467 21.4024 41.2085 21.2637 41.0808C21.1821 41.0441 21.108 41.0271 21.0414 41.0299C20.9876 41.0187 20.8751 41.0434 20.7041 41.1038C20.5853 41.1353 20.4229 41.2421 20.2169 41.424C20.0108 41.606 19.8056 41.8079 19.6012 42.0298C19.4102 42.2512 19.2643 42.4373 19.1638 42.5882L18.9212 43.0186C19.0262 42.9742 19.1253 42.9501 19.2185 42.9463C19.3246 42.9286 19.3848 42.9328 19.3992 42.9589C19.4041 43.0788 19.4288 43.1912 19.4731 43.2961C19.5302 43.3872 19.5932 43.458 19.662 43.5086C19.7441 43.5586 19.8318 43.5817 19.9251 43.5778ZM25.0063 47.7928C24.7488 47.6966 24.5032 47.5666 24.2696 47.4027C24.0355 47.2255 23.8827 47.0783 23.8111 46.9612C23.8062 46.8413 23.8229 46.7605 23.8612 46.7189C23.899 46.664 24.0114 46.6393 24.1985 46.645C24.3983 46.6368 24.7191 46.6503 25.1609 46.6855C25.3208 46.6789 25.5201 46.6574 25.7588 46.6209C25.9975 46.5844 26.2157 46.5354 26.4133 46.4739C26.6243 46.4119 26.7414 46.3403 26.7648 46.2593C26.8314 46.2566 26.8439 46.236 26.8023 46.1977C26.7602 46.1461 26.7113 46.0947 26.6559 46.0436C26.6026 46.0458 26.5418 46.0283 26.4735 45.991C26.4047 45.9405 26.3437 45.9163 26.2904 45.9185C26.2877 45.8519 26.2181 45.7813 26.0816 45.7069C25.9578 45.6186 25.8282 45.5505 25.6928 45.5027C25.3899 45.2749 25.128 45.0722 24.9072 44.8944C24.6858 44.7033 24.6004 44.5734 24.651 44.5046C24.6488 44.4513 24.6477 44.4247 24.6477 44.4247C24.6472 44.4113 24.6469 44.4047 24.6469 44.4047C24.5536 44.4085 24.4416 44.2797 24.3107 44.0182C24.1932 43.7561 24.1301 43.5185 24.1213 43.3053C24.1147 43.1455 24.1532 42.9437 24.2366 42.7001C24.3194 42.4431 24.4353 42.1782 24.5842 41.9052C24.7331 41.6321 24.8906 41.4055 25.0567 41.2252C25.2872 40.9889 25.5771 40.7367 25.9264 40.4688C26.2751 40.1876 26.6186 39.94 26.9568 39.7259C27.3077 39.498 27.6017 39.3458 27.8388 39.2693C28.0747 39.1662 28.2926 39.1106 28.4925 39.1023C28.7056 39.0936 28.894 39.1326 29.0577 39.2192C29.1937 39.2804 29.3177 39.3754 29.4297 39.5042C29.5546 39.6192 29.6597 39.7416 29.7451 39.8716C29.8433 39.9876 29.9076 40.0918 29.9381 40.1839C29.9446 40.3438 29.9387 40.5242 29.9203 40.7251C29.9013 40.9127 29.8682 41.0809 29.8209 41.2296C29.787 41.3778 29.7234 41.4538 29.6301 41.4576C29.6301 41.4576 29.6104 41.4651 29.571 41.4801C29.5443 41.4812 29.5324 41.515 29.5351 41.5816C29.5406 41.7149 29.447 41.8722 29.2542 42.0536C29.0082 42.2372 28.7928 42.3528 28.6079 42.4004C28.4225 42.4347 28.3063 42.3661 28.2592 42.1945C28.217 42.1429 28.1885 42.0974 28.1735 42.0579C28.1586 42.0185 28.1244 41.9999 28.0711 42.0021C28.0711 42.0021 28.0503 41.9829 28.0087 41.9446C27.9671 41.9063 27.9444 41.8405 27.9406 41.7472C27.9384 41.6939 27.9564 41.6465 27.9948 41.6049C28.0325 41.55 28.0514 41.5225 28.0514 41.5225C28.118 41.5198 28.2016 41.4429 28.3022 41.292C28.4022 41.1278 28.4886 40.9574 28.5614 40.7809C28.647 40.5906 28.6884 40.4621 28.6857 40.3955C28.6824 40.3156 28.6672 40.2695 28.64 40.2573C28.6261 40.2445 28.5659 40.2403 28.4593 40.2447C28.2761 40.3323 28.054 40.4481 27.793 40.5923C27.5321 40.7365 27.2844 40.8801 27.0501 41.0232C26.8285 41.1524 26.6667 41.2725 26.5645 41.3834C26.515 41.4789 26.4842 41.5402 26.4719 41.5674C26.4592 41.5812 26.4261 41.5893 26.3728 41.5915C26.3707 41.5382 26.3251 41.5667 26.2363 41.6771C26.1601 41.7737 26.059 41.9113 25.9329 42.0899C25.8202 42.2681 25.7074 42.4462 25.5946 42.6243C25.4946 42.7885 25.4196 42.9117 25.3696 42.9938C25.344 43.0216 25.314 43.1029 25.2795 43.2377C25.2578 43.3587 25.2491 43.4725 25.2535 43.5791C25.2068 43.7411 25.2181 43.8541 25.2874 43.918C25.3562 43.9685 25.5077 44.0824 25.7419 44.2596C26.2224 44.5868 26.6005 44.8582 26.8762 45.0737C27.152 45.2893 27.3595 45.4676 27.4987 45.6086C27.638 45.7497 27.7234 45.8796 27.7549 45.9984C28.0111 46.3882 28.097 46.6916 28.0125 46.9086C27.928 47.1256 27.7092 47.3214 27.3561 47.4961C27.2256 47.5682 27.008 47.6305 26.7032 47.683C26.3984 47.7356 26.0862 47.7684 25.7665 47.7816C25.4473 47.808 25.1939 47.8118 25.0063 47.7928ZM32.4676 51.1693C32.3216 51.1887 32.0937 51.1647 31.7841 51.0973C31.4877 51.0294 31.2649 50.9652 31.1156 50.9046C30.9369 50.7785 30.7563 50.6058 30.5738 50.3864C30.3914 50.1671 30.2419 49.9397 30.1255 49.7042C30.0229 49.4816 29.9758 49.3101 29.9842 49.1896C29.9932 49.0825 30.0923 49.0584 30.2815 49.1173C30.4841 49.1757 30.6209 49.2569 30.6918 49.3607C30.8178 49.5023 30.9634 49.6365 31.1287 49.7631C31.2941 49.8898 31.458 49.9831 31.6206 50.0432C31.7838 50.1165 31.9117 50.1446 32.0044 50.1275C32.3353 50.0605 32.6015 49.8827 32.8032 49.5942C33.0187 49.3185 33.2046 48.9706 33.3608 48.5505C33.4554 48.253 33.5252 48.0032 33.5702 47.8012C33.6292 47.612 33.6804 47.3964 33.7238 47.1544C33.7806 46.9118 33.8468 46.5755 33.9226 46.1454C34.0228 45.6608 34.0887 45.3178 34.1205 45.1164C34.165 44.901 34.1859 44.7601 34.1832 44.6934C34.1804 44.6268 34.1585 44.581 34.1175 44.556C34.1175 44.556 34.0328 44.6062 33.8635 44.7066C33.6941 44.807 33.505 44.9148 33.2963 45.0301C33.1008 45.1449 32.9512 45.2378 32.8473 45.3088C32.4792 45.444 32.1159 45.5324 31.7573 45.5738C31.3987 45.6152 31.1181 45.6067 30.9155 45.5483C30.8206 45.5122 30.7169 45.423 30.6043 45.2809C30.505 45.1382 30.4185 44.9816 30.3448 44.8111C30.2838 44.6268 30.2573 44.4678 30.2651 44.334C30.2741 44.2269 30.3274 44.0645 30.4253 43.847C30.5231 43.6295 30.6337 43.3981 30.757 43.1528C30.8937 42.907 31.0121 42.7019 31.1121 42.5377C31.2249 42.3596 31.2946 42.27 31.3212 42.2689C31.3745 42.2667 31.4003 42.2456 31.3987 42.2057C31.4104 42.1651 31.4151 42.1182 31.4129 42.065C31.4241 42.0111 31.5193 41.8938 31.6987 41.7129C31.8909 41.5182 32.148 41.2808 32.4701 41.0007C32.9189 40.5552 33.3251 40.2116 33.6888 39.9698C34.0526 39.728 34.3937 39.5872 34.7124 39.5474C34.8062 39.5569 34.893 39.56 34.973 39.5567C35.0662 39.5529 35.1129 39.5509 35.1129 39.5509C35.1129 39.5509 35.1539 39.5759 35.236 39.626C35.3309 39.6621 35.453 39.7104 35.6023 39.771C35.8054 39.8428 35.991 39.9753 36.1591 40.1685C36.3266 40.3485 36.4622 40.5631 36.5659 40.8124C36.6823 41.0478 36.7521 41.2851 36.7753 41.5244C36.774 41.818 36.7191 42.1072 36.6107 42.3918C36.5157 42.676 36.4146 42.8136 36.3074 42.8046C36.2003 42.7957 36.069 42.8478 35.9135 42.961C35.7714 43.0735 35.7014 43.1565 35.7036 43.2098C35.7057 43.2631 35.6885 43.3305 35.6518 43.4121C35.6285 43.4931 35.5471 43.6232 35.4076 43.8024C35.3971 43.8696 35.3645 44.0511 35.3099 44.3469C35.2681 44.6289 35.2146 44.9513 35.1495 45.3143C35.0843 45.6773 35.0245 46.0067 34.9699 46.3025C34.9281 46.5845 34.9022 46.7657 34.8922 46.8462C34.881 46.9 34.8526 47.0213 34.807 47.21C34.7742 47.3848 34.7224 47.5871 34.6518 47.8168C34.5945 48.0461 34.53 48.2622 34.4583 48.4653C34.4208 48.8539 34.3593 49.1433 34.2737 49.3336C34.202 49.5368 34.0776 49.7554 33.9004 49.9895C33.7142 50.3308 33.4851 50.6004 33.213 50.7984C32.9414 51.0097 32.693 51.1334 32.4676 51.1693ZM31.3724 44.4887C31.4045 44.6208 31.5863 44.66 31.9177 44.6064C32.2486 44.5394 32.577 44.4125 32.9029 44.2256C33.19 44.067 33.4515 43.9362 33.6874 43.8331C33.9234 43.73 34.0845 43.5899 34.1706 43.4129C34.2451 43.2764 34.3062 43.1404 34.354 43.005C34.4018 42.8696 34.4605 42.6737 34.53 42.4173C34.5412 42.3635 34.572 42.3021 34.6226 42.2333C34.6859 42.1507 34.7439 42.1016 34.7967 42.0861C34.8494 42.0706 34.9027 42.0684 34.9565 42.0795C35.0237 42.0901 35.1047 42.1134 35.1996 42.1496C35.2651 42.1202 35.309 42.0517 35.3313 41.944C35.3669 41.8358 35.3686 41.7156 35.3365 41.5835C35.3193 41.4908 35.2475 41.3669 35.1211 41.212C34.9946 41.0571 34.8362 40.9368 34.6458 40.8512C34.4416 40.7528 34.2112 40.829 33.9546 41.0798C33.6981 41.3305 33.3837 41.637 33.0116 41.9993C32.7167 42.2916 32.4356 42.5968 32.1685 42.9147C31.9013 43.2326 31.6866 43.5283 31.5243 43.8018C31.3754 44.0749 31.3248 44.3038 31.3724 44.4887ZM39.7114 46.9884C39.5388 47.0089 39.3984 47.0013 39.2901 46.9657C39.1814 46.9168 39.0451 46.849 38.8814 46.7623C38.5791 46.5479 38.3499 46.3304 38.1941 46.11C38.051 45.8757 37.9815 45.645 37.9855 45.418C38.0072 45.297 38.0028 45.1904 37.9724 45.0982C37.9552 45.0055 37.9466 44.9592 37.9466 44.9592C37.864 44.8958 37.8357 44.857 37.8618 44.8426C37.8873 44.8148 37.9057 44.774 37.9168 44.7202C38.0223 44.6892 38.0326 44.6154 37.9477 44.4987C37.9034 44.3938 37.9135 44.1532 37.9781 43.7769C38.0555 43.3867 38.1606 43.0221 38.2935 42.683C38.3541 42.5337 38.4394 42.3367 38.5494 42.092C38.6728 41.8467 38.8095 41.6009 38.9595 41.3546C39.109 41.0949 39.2473 40.889 39.3745 40.737C39.6539 40.3919 39.9036 40.1348 40.1235 39.9656C40.3562 39.7826 40.6169 39.6317 40.9056 39.5131C41.1676 39.3956 41.3583 39.3277 41.4777 39.3095C41.597 39.2912 41.7668 39.3643 41.9871 39.5287C42.3107 39.6088 42.5559 39.7322 42.7229 39.8988C42.9027 40.0516 43.0463 40.2992 43.1538 40.6418C43.2762 41.0237 43.3284 41.482 43.3104 42.0165C43.3051 42.5372 43.1062 43.2192 42.7139 44.0627C42.4821 44.5927 42.2451 44.9961 42.0029 45.2729C41.7741 45.5492 41.4925 45.841 41.1582 46.1483C40.9138 46.3719 40.6875 46.548 40.4793 46.6766C40.2711 46.8053 40.0151 46.9092 39.7114 46.9884ZM41.2124 44.5448C41.4624 44.1341 41.6538 43.7593 41.7867 43.4202C41.9323 43.0673 42.0411 42.6291 42.113 42.1057C42.1336 41.9581 42.1329 41.778 42.1108 41.5654C42.0882 41.3394 42.0464 41.1343 41.9855 40.95C41.9378 40.7651 41.8738 40.6677 41.7933 40.6576C41.6174 40.5981 41.4242 40.6061 41.2138 40.6814C41.0028 40.7435 40.7762 40.9129 40.5341 41.1898C40.3185 41.4655 40.1244 41.7738 39.9515 42.1145C39.792 42.4546 39.6472 42.8276 39.5171 43.2332C39.387 43.6389 39.2646 44.071 39.15 44.5294C39.0376 45.0411 39.0601 45.4272 39.2176 45.6876C39.3884 45.9475 39.6509 46.0034 40.0052 45.8554C40.3588 45.6941 40.7612 45.2572 41.2124 44.5448Z" fill="white"/>
<path d="M81.2819 4.58704C81.0538 4.43137 80.7427 4.49006 80.587 4.71814L78.0502 8.43492C77.8945 8.663 77.9532 8.97409 78.1813 9.12976C78.4094 9.28544 78.7205 9.22674 78.8761 8.99866L81.1311 5.69486L84.4349 7.94983C84.663 8.10551 84.9741 8.04681 85.1297 7.81873C85.2854 7.59065 85.2267 7.27956 84.9986 7.12388L81.2819 4.58704ZM51.0126 43.1604C57.127 43.0069 65.9945 40.1747 72.7134 34.0236C79.4595 27.8475 84.025 18.3356 81.4913 4.90731L80.5087 5.09272C82.975 18.1644 78.5415 27.3321 72.0381 33.286C65.5076 39.2647 56.8751 42.0129 50.9875 42.1608L51.0126 43.1604Z" fill="#A5D239"/>
</svg>
